<?xml version="1.0" encoding="UTF-8" ?>
<svg version="1.1" width="16" height="16" xmlns="http://www.w3.org/2000/svg" shape-rendering="crispEdges">
<rect x="2" y="1" width="1" height="1" fill="#09343E" opacity="0.000000" />
<rect x="3" y="1" width="1" height="1" fill="#0A4147" opacity="0.000000" />
<rect x="4" y="1" width="1" height="1" fill="#0F4C4B" opacity="0.000000" />
<rect x="5" y="1" width="1" height="1" fill="#565932" opacity="0.000000" />
<rect x="6" y="1" width="1" height="1" fill="#2B3A2F" opacity="0.000000" />
<rect x="7" y="1" width="1" height="1" fill="#1A3A41" opacity="0.000000" />
<rect x="8" y="1" width="1" height="1" fill="#273C42" opacity="0.000000" />
<rect x="9" y="1" width="1" height="1" fill="#303C31" opacity="0.000000" />
<rect x="10" y="1" width="1" height="1" fill="#555834" opacity="0.000000" />
<rect x="11" y="1" width="1" height="1" fill="#0F4A4A" opacity="0.000000" />
<rect x="12" y="1" width="1" height="1" fill="#093D45" opacity="0.000000" />
<rect x="13" y="1" width="1" height="1" fill="#092F3B" opacity="0.000000" />
<rect x="2" y="2" width="1" height="1" fill="#022838" opacity="0.000000" />
<rect x="3" y="2" width="1" height="1" fill="#033340" opacity="0.031373" />
<rect x="4" y="2" width="1" height="1" fill="#093E44" opacity="0.196078" />
<rect x="5" y="2" width="1" height="1" fill="#42472E" opacity="0.258824" />
<rect x="6" y="2" width="1" height="1" fill="#221014" opacity="0.058824" />
<rect x="7" y="2" width="1" height="1" fill="#24343F" opacity="0.074510" />
<rect x="8" y="2" width="1" height="1" fill="#473B44" opacity="0.074510" />
<rect x="9" y="2" width="1" height="1" fill="#241016" opacity="0.062745" />
<rect x="10" y="2" width="1" height="1" fill="#404730" opacity="0.254902" />
<rect x="11" y="2" width="1" height="1" fill="#0A3E43" opacity="0.200000" />
<rect x="12" y="2" width="1" height="1" fill="#03313E" opacity="0.031373" />
<rect x="13" y="2" width="1" height="1" fill="#022636" opacity="0.000000" />
<rect x="1" y="3" width="1" height="1" fill="#0F504E" opacity="0.000000" />
<rect x="2" y="3" width="1" height="1" fill="#1D5248" opacity="0.000000" />
<rect x="3" y="3" width="1" height="1" fill="#27614D" opacity="0.141176" />
<rect x="4" y="3" width="1" height="1" fill="#29916C" opacity="0.827451" />
<rect x="5" y="3" width="1" height="1" fill="#52673C" opacity="0.827451" />
<rect x="6" y="3" width="1" height="1" fill="#0E7F6E" opacity="0.639216" />
<rect x="7" y="3" width="1" height="1" fill="#18B590" opacity="0.823529" />
<rect x="8" y="3" width="1" height="1" fill="#38BC95" opacity="0.823529" />
<rect x="9" y="3" width="1" height="1" fill="#46967C" opacity="0.643137" />
<rect x="10" y="3" width="1" height="1" fill="#5C6E41" opacity="0.827451" />
<rect x="11" y="3" width="1" height="1" fill="#28906A" opacity="0.823529" />
<rect x="12" y="3" width="1" height="1" fill="#285C47" opacity="0.133333" />
<rect x="13" y="3" width="1" height="1" fill="#1C4D43" opacity="0.000000" />
<rect x="14" y="3" width="1" height="1" fill="#0E4C48" opacity="0.000000" />
<rect x="1" y="4" width="1" height="1" fill="#104949" opacity="0.000000" />
<rect x="2" y="4" width="1" height="1" fill="#0C363E" opacity="0.086275" />
<rect x="3" y="4" width="1" height="1" fill="#1F745E" opacity="0.470588" />
<rect x="4" y="4" width="1" height="1" fill="#4E955D" opacity="0.980392" />
<rect x="5" y="4" width="1" height="1" fill="#699166" />
<rect x="6" y="4" width="1" height="1" fill="#3DCF9F" />
<rect x="7" y="4" width="1" height="1" fill="#50C38C" />
<rect x="8" y="4" width="1" height="1" fill="#4FC28B" />
<rect x="9" y="4" width="1" height="1" fill="#4DD7A4" />
<rect x="10" y="4" width="1" height="1" fill="#7BA173" />
<rect x="11" y="4" width="1" height="1" fill="#4D925C" opacity="0.980392" />
<rect x="12" y="4" width="1" height="1" fill="#1E725B" opacity="0.462745" />
<rect x="13" y="4" width="1" height="1" fill="#0C3639" opacity="0.082353" />
<rect x="14" y="4" width="1" height="1" fill="#0E4544" opacity="0.000000" />
<rect x="1" y="5" width="1" height="1" fill="#1A4A45" opacity="0.000000" />
<rect x="2" y="5" width="1" height="1" fill="#144242" opacity="0.156863" />
<rect x="3" y="5" width="1" height="1" fill="#4F9B5D" opacity="0.866667" />
<rect x="4" y="5" width="1" height="1" fill="#497F51" />
<rect x="5" y="5" width="1" height="1" fill="#3FBA94" />
<rect x="6" y="5" width="1" height="1" fill="#57BC97" />
<rect x="7" y="5" width="1" height="1" fill="#55AE84" />
<rect x="8" y="5" width="1" height="1" fill="#58A77C" />
<rect x="9" y="5" width="1" height="1" fill="#5EBB96" />
<rect x="10" y="5" width="1" height="1" fill="#3FBC96" />
<rect x="11" y="5" width="1" height="1" fill="#4B8052" />
<rect x="12" y="5" width="1" height="1" fill="#4D995B" opacity="0.854902" />
<rect x="13" y="5" width="1" height="1" fill="#113F3C" opacity="0.145098" />
<rect x="14" y="5" width="1" height="1" fill="#17483F" opacity="0.000000" />
<rect x="1" y="6" width="1" height="1" fill="#081A2A" opacity="0.000000" />
<rect x="2" y="6" width="1" height="1" fill="#000018" opacity="0.039216" />
<rect x="3" y="6" width="1" height="1" fill="#1E6556" opacity="0.705882" />
<rect x="4" y="6" width="1" height="1" fill="#257460" />
<rect x="5" y="6" width="1" height="1" fill="#0AB392" />
<rect x="6" y="6" width="1" height="1" fill="#236461" />
<rect x="7" y="6" width="1" height="1" fill="#0EA389" />
<rect x="8" y="6" width="1" height="1" fill="#39987E" />
<rect x="9" y="6" width="1" height="1" fill="#3F6C64" />
<rect x="10" y="6" width="1" height="1" fill="#09B392" />
<rect x="11" y="6" width="1" height="1" fill="#2A7962" />
<rect x="12" y="6" width="1" height="1" fill="#34705C" opacity="0.694118" />
<rect x="13" y="6" width="1" height="1" fill="#00000E" opacity="0.035294" />
<rect x="14" y="6" width="1" height="1" fill="#091B29" opacity="0.000000" />
<rect x="1" y="7" width="1" height="1" fill="#183B41" opacity="0.000000" />
<rect x="2" y="7" width="1" height="1" fill="#2D2D37" opacity="0.047059" />
<rect x="3" y="7" width="1" height="1" fill="#219A85" opacity="0.749020" />
<rect x="4" y="7" width="1" height="1" fill="#0A7F7A" />
<rect x="5" y="7" width="1" height="1" fill="#1C9681" />
<rect x="6" y="7" width="1" height="1" fill="#468075" />
<rect x="7" y="7" width="1" height="1" fill="#458478" />
<rect x="8" y="7" width="1" height="1" fill="#88A488" />
<rect x="9" y="7" width="1" height="1" fill="#508476" />
<rect x="10" y="7" width="1" height="1" fill="#199781" />
<rect x="11" y="7" width="1" height="1" fill="#10877F" />
<rect x="12" y="7" width="1" height="1" fill="#4FA48C" opacity="0.725490" />
<rect x="13" y="7" width="1" height="1" fill="#31051C" opacity="0.039216" />
<rect x="14" y="7" width="1" height="1" fill="#112532" opacity="0.000000" />
<rect x="1" y="8" width="1" height="1" fill="#0F3B42" opacity="0.000000" />
<rect x="2" y="8" width="1" height="1" fill="#103940" opacity="0.227451" />
<rect x="3" y="8" width="1" height="1" fill="#12A185" opacity="0.937255" />
<rect x="4" y="8" width="1" height="1" fill="#0F8A7D" />
<rect x="5" y="8" width="1" height="1" fill="#12595C" />
<rect x="6" y="8" width="1" height="1" fill="#8DA686" />
<rect x="7" y="8" width="1" height="1" fill="#EBD9A3" />
<rect x="8" y="8" width="1" height="1" fill="#F3E2A8" />
<rect x="9" y="8" width="1" height="1" fill="#8CA786" />
<rect x="10" y="8" width="1" height="1" fill="#115A5C" />
<rect x="11" y="8" width="1" height="1" fill="#108F80" />
<rect x="12" y="8" width="1" height="1" fill="#2A9F86" opacity="0.894118" />
<rect x="13" y="8" width="1" height="1" fill="#1B2734" opacity="0.200000" />
<rect x="14" y="8" width="1" height="1" fill="#132836" opacity="0.000000" />
<rect x="1" y="9" width="1" height="1" fill="#092B36" opacity="0.000000" />
<rect x="2" y="9" width="1" height="1" fill="#092633" opacity="0.305882" />
<rect x="3" y="9" width="1" height="1" fill="#0D9B7F" opacity="0.925490" />
<rect x="4" y="9" width="1" height="1" fill="#0DBF98" />
<rect x="5" y="9" width="1" height="1" fill="#085C5D" />
<rect x="6" y="9" width="1" height="1" fill="#2E3F45" />
<rect x="7" y="9" width="1" height="1" fill="#98856A" />
<rect x="8" y="9" width="1" height="1" fill="#97896D" />
<rect x="9" y="9" width="1" height="1" fill="#2E4347" />
<rect x="10" y="9" width="1" height="1" fill="#085C5C" />
<rect x="11" y="9" width="1" height="1" fill="#0EC199" />
<rect x="12" y="9" width="1" height="1" fill="#129C80" opacity="0.925490" />
<rect x="13" y="9" width="1" height="1" fill="#0D2533" opacity="0.301961" />
<rect x="14" y="9" width="1" height="1" fill="#0E2936" opacity="0.000000" />
<rect x="1" y="10" width="1" height="1" fill="#09202E" opacity="0.000000" />
<rect x="2" y="10" width="1" height="1" fill="#091427" opacity="0.168627" />
<rect x="3" y="10" width="1" height="1" fill="#0B8272" opacity="0.764706" />
<rect x="4" y="10" width="1" height="1" fill="#09C99D" />
<rect x="5" y="10" width="1" height="1" fill="#14BE94" />
<rect x="6" y="10" width="1" height="1" fill="#1C8171" />
<rect x="7" y="10" width="1" height="1" fill="#587967" />
<rect x="8" y="10" width="1" height="1" fill="#577A67" />
<rect x="9" y="10" width="1" height="1" fill="#198070" />
<rect x="10" y="10" width="1" height="1" fill="#11BE94" />
<rect x="11" y="10" width="1" height="1" fill="#08CA9D" />
<rect x="12" y="10" width="1" height="1" fill="#0A8C77" opacity="0.729412" />
<rect x="13" y="10" width="1" height="1" fill="#0A1425" opacity="0.117647" />
<rect x="14" y="10" width="1" height="1" fill="#0B2630" opacity="0.000000" />
<rect x="1" y="11" width="1" height="1" fill="#0D1B26" opacity="0.000000" />
<rect x="2" y="11" width="1" height="1" fill="#0F0000" opacity="0.007843" />
<rect x="3" y="11" width="1" height="1" fill="#0A4D54" opacity="0.294118" />
<rect x="4" y="11" width="1" height="1" fill="#098A78" opacity="0.894118" />
<rect x="5" y="11" width="1" height="1" fill="#08C697" />
<rect x="6" y="11" width="1" height="1" fill="#1FBF95" />
<rect x="7" y="11" width="1" height="1" fill="#378F7A" opacity="0.941176" />
<rect x="8" y="11" width="1" height="1" fill="#3D907A" opacity="0.941176" />
<rect x="9" y="11" width="1" height="1" fill="#1EC196" />
<rect x="10" y="11" width="1" height="1" fill="#09C697" />
<rect x="11" y="11" width="1" height="1" fill="#098F7A" opacity="0.890196" />
<rect x="12" y="11" width="1" height="1" fill="#085758" opacity="0.266667" />
<rect x="13" y="11" width="1" height="1" fill="#096D69" opacity="0.000000" />
<rect x="14" y="11" width="1" height="1" fill="#033754" opacity="0.000000" />
<rect x="1" y="12" width="1" height="1" fill="#0C1C28" opacity="0.000000" />
<rect x="2" y="12" width="1" height="1" fill="#0A1021" opacity="0.000000" />
<rect x="3" y="12" width="1" height="1" fill="#17FFFF" opacity="0.000000" />
<rect x="4" y="12" width="1" height="1" fill="#0A3E49" opacity="0.231373" />
<rect x="5" y="12" width="1" height="1" fill="#096F67" opacity="0.654902" />
<rect x="6" y="12" width="1" height="1" fill="#098576" opacity="0.929412" />
<rect x="7" y="12" width="1" height="1" fill="#0C5654" opacity="0.545098" />
<rect x="8" y="12" width="1" height="1" fill="#0E5956" opacity="0.552941" />
<rect x="9" y="12" width="1" height="1" fill="#0A8878" opacity="0.925490" />
<rect x="10" y="12" width="1" height="1" fill="#097268" opacity="0.650980" />
<rect x="11" y="12" width="1" height="1" fill="#09454A" opacity="0.227451" />
<rect x="12" y="12" width="1" height="1" fill="#08FFFF" opacity="0.000000" />
<rect x="13" y="12" width="1" height="1" fill="#0A0006" opacity="0.000000" />
<rect x="14" y="12" width="1" height="1" fill="#0F2426" opacity="0.000000" />
<rect x="2" y="13" width="1" height="1" fill="#092433" opacity="0.000000" />
<rect x="3" y="13" width="1" height="1" fill="#07061C" opacity="0.000000" />
<rect x="4" y="13" width="1" height="1" fill="#0A5056" opacity="0.000000" />
<rect x="5" y="13" width="1" height="1" fill="#070000" opacity="0.011765" />
<rect x="6" y="13" width="1" height="1" fill="#0A3642" opacity="0.352941" />
<rect x="7" y="13" width="1" height="1" fill="#09313C" opacity="0.211765" />
<rect x="8" y="13" width="1" height="1" fill="#093240" opacity="0.223529" />
<rect x="9" y="13" width="1" height="1" fill="#0A3743" opacity="0.345098" />
<rect x="10" y="13" width="1" height="1" fill="#050000" opacity="0.011765" />
<rect x="11" y="13" width="1" height="1" fill="#095758" opacity="0.000000" />
<rect x="12" y="13" width="1" height="1" fill="#08000E" opacity="0.000000" />
<rect x="13" y="13" width="1" height="1" fill="#09242E" opacity="0.000000" />
<rect x="3" y="14" width="1" height="1" fill="#0B1C28" opacity="0.000000" />
<rect x="4" y="14" width="1" height="1" fill="#082C39" opacity="0.000000" />
<rect x="5" y="14" width="1" height="1" fill="#061F2D" opacity="0.000000" />
<rect x="6" y="14" width="1" height="1" fill="#120D15" opacity="0.019608" />
<rect x="7" y="14" width="1" height="1" fill="#0A0009" opacity="0.007843" />
<rect x="8" y="14" width="1" height="1" fill="#0D000F" opacity="0.007843" />
<rect x="9" y="14" width="1" height="1" fill="#100414" opacity="0.019608" />
<rect x="10" y="14" width="1" height="1" fill="#081F2D" opacity="0.000000" />
<rect x="11" y="14" width="1" height="1" fill="#082D38" opacity="0.000000" />
<rect x="12" y="14" width="1" height="1" fill="#0C1E20" opacity="0.000000" />
<rect x="5" y="15" width="1" height="1" fill="#011B2A" opacity="0.000000" />
<rect x="6" y="15" width="1" height="1" fill="#10242A" opacity="0.000000" />
<rect x="7" y="15" width="1" height="1" fill="#0B2129" opacity="0.000000" />
<rect x="8" y="15" width="1" height="1" fill="#0C1E2C" opacity="0.000000" />
<rect x="9" y="15" width="1" height="1" fill="#0F1F2A" opacity="0.000000" />
<rect x="10" y="15" width="1" height="1" fill="#071C2E" opacity="0.000000" />
</svg>