<?xml version="1.0" encoding="UTF-8" ?>
<svg version="1.1" width="16" height="16" xmlns="http://www.w3.org/2000/svg" shape-rendering="crispEdges">
<rect x="1" y="0" width="1" height="1" fill="#FFFFFF" opacity="0.000000" />
<rect x="2" y="0" width="1" height="1" fill="#B2B2B5" opacity="0.247059" />
<rect x="3" y="0" width="1" height="1" fill="#C0C0C3" opacity="0.419608" />
<rect x="4" y="0" width="1" height="1" fill="#C0C1C4" opacity="0.411765" />
<rect x="5" y="0" width="1" height="1" fill="#C0C1C4" opacity="0.411765" />
<rect x="6" y="0" width="1" height="1" fill="#C0C1C4" opacity="0.411765" />
<rect x="7" y="0" width="1" height="1" fill="#BFC0C2" opacity="0.396078" />
<rect x="8" y="0" width="1" height="1" fill="#B2B3B5" opacity="0.223529" />
<rect x="9" y="0" width="1" height="1" fill="#7A797A" opacity="0.015686" />
<rect x="10" y="0" width="1" height="1" fill="#A1A1A3" opacity="0.000000" />
<rect x="11" y="0" width="1" height="1" fill="#A5A5A7" opacity="0.000000" />
<rect x="13" y="0" width="1" height="1" fill="#000000" opacity="0.000000" />
<rect x="14" y="0" width="1" height="1" fill="#000000" opacity="0.000000" />
<rect x="15" y="0" width="1" height="1" fill="#000000" opacity="0.000000" />
<rect x="1" y="1" width="1" height="1" fill="#FFFFFF" opacity="0.000000" />
<rect x="2" y="1" width="1" height="1" fill="#C8C9CC" opacity="0.549020" />
<rect x="3" y="1" width="1" height="1" fill="#E6E8EC" opacity="0.917647" />
<rect x="4" y="1" width="1" height="1" fill="#E8EAEE" opacity="0.901961" />
<rect x="5" y="1" width="1" height="1" fill="#E8EAEE" opacity="0.901961" />
<rect x="6" y="1" width="1" height="1" fill="#E8EAEE" opacity="0.901961" />
<rect x="7" y="1" width="1" height="1" fill="#E8E9ED" opacity="0.898039" />
<rect x="8" y="1" width="1" height="1" fill="#DEDFE3" opacity="0.835294" />
<rect x="9" y="1" width="1" height="1" fill="#BABBBE" opacity="0.482353" />
<rect x="10" y="1" width="1" height="1" fill="#8D8C8E" opacity="0.050980" />
<rect x="11" y="1" width="1" height="1" fill="#ACADAF" opacity="0.000000" />
<rect x="12" y="1" width="1" height="1" fill="#B9BABC" opacity="0.000000" />
<rect x="14" y="1" width="1" height="1" fill="#000000" opacity="0.000000" />
<rect x="15" y="1" width="1" height="1" fill="#000000" opacity="0.000000" />
<rect x="1" y="2" width="1" height="1" fill="#FFFFFF" opacity="0.000000" />
<rect x="2" y="2" width="1" height="1" fill="#CCCDD0" opacity="0.549020" />
<rect x="3" y="2" width="1" height="1" fill="#EDEFF3" opacity="0.921569" />
<rect x="4" y="2" width="1" height="1" fill="#EFF1F5" opacity="0.905882" />
<rect x="5" y="2" width="1" height="1" fill="#EFF1F5" opacity="0.905882" />
<rect x="6" y="2" width="1" height="1" fill="#EFF1F5" opacity="0.905882" />
<rect x="7" y="2" width="1" height="1" fill="#EFF1F5" opacity="0.905882" />
<rect x="8" y="2" width="1" height="1" fill="#F0F2F6" opacity="0.909804" />
<rect x="9" y="2" width="1" height="1" fill="#D4D5D9" opacity="0.901961" />
<rect x="10" y="2" width="1" height="1" fill="#C4C5C8" opacity="0.580392" />
<rect x="11" y="2" width="1" height="1" fill="#A9AAAC" opacity="0.086275" />
<rect x="12" y="2" width="1" height="1" fill="#ADAEB0" opacity="0.000000" />
<rect x="13" y="2" width="1" height="1" fill="#AFAFB2" opacity="0.000000" />
<rect x="15" y="2" width="1" height="1" fill="#000000" opacity="0.000000" />
<rect x="1" y="3" width="1" height="1" fill="#FFFFFF" opacity="0.000000" />
<rect x="2" y="3" width="1" height="1" fill="#CCCDD0" opacity="0.549020" />
<rect x="3" y="3" width="1" height="1" fill="#EDEFF3" opacity="0.921569" />
<rect x="4" y="3" width="1" height="1" fill="#EFF1F5" opacity="0.905882" />
<rect x="5" y="3" width="1" height="1" fill="#EFF1F5" opacity="0.905882" />
<rect x="6" y="3" width="1" height="1" fill="#EFF1F5" opacity="0.905882" />
<rect x="7" y="3" width="1" height="1" fill="#F1F1F6" opacity="0.905882" />
<rect x="8" y="3" width="1" height="1" fill="#F1F1F6" opacity="0.905882" />
<rect x="9" y="3" width="1" height="1" fill="#D9DADE" opacity="0.905882" />
<rect x="10" y="3" width="1" height="1" fill="#DADBDE" opacity="0.909804" />
<rect x="11" y="3" width="1" height="1" fill="#C2C3C6" opacity="0.647059" />
<rect x="12" y="3" width="1" height="1" fill="#9B9B9D" opacity="0.121569" />
<rect x="13" y="3" width="1" height="1" fill="#ACACAF" opacity="0.000000" />
<rect x="14" y="3" width="1" height="1" fill="#B2B2B5" opacity="0.000000" />
<rect x="15" y="3" width="1" height="1" fill="#000000" opacity="0.000000" />
<rect x="1" y="4" width="1" height="1" fill="#FFFFFF" opacity="0.000000" />
<rect x="2" y="4" width="1" height="1" fill="#CCCDD0" opacity="0.549020" />
<rect x="3" y="4" width="1" height="1" fill="#EDEFF3" opacity="0.921569" />
<rect x="4" y="4" width="1" height="1" fill="#EFF1F5" opacity="0.905882" />
<rect x="5" y="4" width="1" height="1" fill="#F0F1F6" opacity="0.905882" />
<rect x="6" y="4" width="1" height="1" fill="#F3F1F7" opacity="0.905882" />
<rect x="7" y="4" width="1" height="1" fill="#CBEDE1" opacity="0.905882" />
<rect x="8" y="4" width="1" height="1" fill="#CBEDE1" opacity="0.905882" />
<rect x="9" y="4" width="1" height="1" fill="#EAE8EE" opacity="0.905882" />
<rect x="10" y="4" width="1" height="1" fill="#E2E3E7" opacity="0.905882" />
<rect x="11" y="4" width="1" height="1" fill="#DBDDE0" opacity="0.917647" />
<rect x="12" y="4" width="1" height="1" fill="#C6C7CA" opacity="0.647059" />
<rect x="13" y="4" width="1" height="1" fill="#A3A3A5" opacity="0.066667" />
<rect x="14" y="4" width="1" height="1" fill="#A8A8AA" opacity="0.000000" />
<rect x="1" y="5" width="1" height="1" fill="#FFFFFF" opacity="0.000000" />
<rect x="2" y="5" width="1" height="1" fill="#CCCDD0" opacity="0.549020" />
<rect x="3" y="5" width="1" height="1" fill="#EDEFF3" opacity="0.921569" />
<rect x="4" y="5" width="1" height="1" fill="#F0F1F6" opacity="0.905882" />
<rect x="5" y="5" width="1" height="1" fill="#BBEBD9" opacity="0.905882" />
<rect x="6" y="5" width="1" height="1" fill="#9DE8C8" opacity="0.905882" />
<rect x="7" y="5" width="1" height="1" fill="#5AE3A3" opacity="0.905882" />
<rect x="8" y="5" width="1" height="1" fill="#5AE3A4" opacity="0.905882" />
<rect x="9" y="5" width="1" height="1" fill="#9DE9C9" opacity="0.905882" />
<rect x="10" y="5" width="1" height="1" fill="#BCECDA" opacity="0.905882" />
<rect x="11" y="5" width="1" height="1" fill="#F2F2F7" opacity="0.905882" />
<rect x="12" y="5" width="1" height="1" fill="#E6E7EB" opacity="0.898039" />
<rect x="13" y="5" width="1" height="1" fill="#BDBEC1" opacity="0.333333" />
<rect x="14" y="5" width="1" height="1" fill="#CECFD2" opacity="0.000000" />
<rect x="15" y="5" width="1" height="1" fill="#9F9F9F" opacity="0.000000" />
<rect x="1" y="6" width="1" height="1" fill="#FFFFFF" opacity="0.000000" />
<rect x="2" y="6" width="1" height="1" fill="#CCCDD0" opacity="0.549020" />
<rect x="3" y="6" width="1" height="1" fill="#EDEFF3" opacity="0.921569" />
<rect x="4" y="6" width="1" height="1" fill="#F3F1F7" opacity="0.905882" />
<rect x="5" y="6" width="1" height="1" fill="#9DE8C8" opacity="0.905882" />
<rect x="6" y="6" width="1" height="1" fill="#21DE84" opacity="0.905882" />
<rect x="7" y="6" width="1" height="1" fill="#27DE88" opacity="0.905882" />
<rect x="8" y="6" width="1" height="1" fill="#27DE88" opacity="0.905882" />
<rect x="9" y="6" width="1" height="1" fill="#21DE84" opacity="0.905882" />
<rect x="10" y="6" width="1" height="1" fill="#9DE8C8" opacity="0.905882" />
<rect x="11" y="6" width="1" height="1" fill="#F3F1F7" opacity="0.905882" />
<rect x="12" y="6" width="1" height="1" fill="#ECEEF2" opacity="0.921569" />
<rect x="13" y="6" width="1" height="1" fill="#CACBCE" opacity="0.517647" />
<rect x="14" y="6" width="1" height="1" fill="#FFFFFF" opacity="0.000000" />
<rect x="1" y="7" width="1" height="1" fill="#FFFFFF" opacity="0.000000" />
<rect x="2" y="7" width="1" height="1" fill="#CCCDD0" opacity="0.549020" />
<rect x="3" y="7" width="1" height="1" fill="#EFEFF4" opacity="0.921569" />
<rect x="4" y="7" width="1" height="1" fill="#CBEDE1" opacity="0.905882" />
<rect x="5" y="7" width="1" height="1" fill="#5AE3A4" opacity="0.905882" />
<rect x="6" y="7" width="1" height="1" fill="#27DE88" opacity="0.905882" />
<rect x="7" y="7" width="1" height="1" fill="#A1E9CB" opacity="0.905882" />
<rect x="8" y="7" width="1" height="1" fill="#A1E9CA" opacity="0.905882" />
<rect x="9" y="7" width="1" height="1" fill="#27DE88" opacity="0.905882" />
<rect x="10" y="7" width="1" height="1" fill="#5AE3A4" opacity="0.905882" />
<rect x="11" y="7" width="1" height="1" fill="#CBEDE1" opacity="0.905882" />
<rect x="12" y="7" width="1" height="1" fill="#EFEFF4" opacity="0.921569" />
<rect x="13" y="7" width="1" height="1" fill="#CCCDD0" opacity="0.552941" />
<rect x="14" y="7" width="1" height="1" fill="#FFFFFF" opacity="0.000000" />
<rect x="1" y="8" width="1" height="1" fill="#FFFFFF" opacity="0.000000" />
<rect x="2" y="8" width="1" height="1" fill="#CCCDD0" opacity="0.549020" />
<rect x="3" y="8" width="1" height="1" fill="#EFEFF4" opacity="0.921569" />
<rect x="4" y="8" width="1" height="1" fill="#CBEDE1" opacity="0.905882" />
<rect x="5" y="8" width="1" height="1" fill="#5AE3A4" opacity="0.905882" />
<rect x="6" y="8" width="1" height="1" fill="#27DE88" opacity="0.905882" />
<rect x="7" y="8" width="1" height="1" fill="#A1E9CA" opacity="0.905882" />
<rect x="8" y="8" width="1" height="1" fill="#A1E9CA" opacity="0.905882" />
<rect x="9" y="8" width="1" height="1" fill="#27DE88" opacity="0.905882" />
<rect x="10" y="8" width="1" height="1" fill="#5AE3A4" opacity="0.905882" />
<rect x="11" y="8" width="1" height="1" fill="#CBEDE1" opacity="0.905882" />
<rect x="12" y="8" width="1" height="1" fill="#EFEFF4" opacity="0.921569" />
<rect x="13" y="8" width="1" height="1" fill="#CCCDD0" opacity="0.549020" />
<rect x="14" y="8" width="1" height="1" fill="#FFFFFF" opacity="0.000000" />
<rect x="1" y="9" width="1" height="1" fill="#FFFFFF" opacity="0.000000" />
<rect x="2" y="9" width="1" height="1" fill="#CCCDD0" opacity="0.549020" />
<rect x="3" y="9" width="1" height="1" fill="#EDEFF3" opacity="0.921569" />
<rect x="4" y="9" width="1" height="1" fill="#F3F1F7" opacity="0.905882" />
<rect x="5" y="9" width="1" height="1" fill="#9DE8C8" opacity="0.905882" />
<rect x="6" y="9" width="1" height="1" fill="#21DE84" opacity="0.905882" />
<rect x="7" y="9" width="1" height="1" fill="#27DE88" opacity="0.905882" />
<rect x="8" y="9" width="1" height="1" fill="#27DE88" opacity="0.905882" />
<rect x="9" y="9" width="1" height="1" fill="#21DE84" opacity="0.905882" />
<rect x="10" y="9" width="1" height="1" fill="#9DE8C8" opacity="0.905882" />
<rect x="11" y="9" width="1" height="1" fill="#F3F1F7" opacity="0.905882" />
<rect x="12" y="9" width="1" height="1" fill="#EDEFF3" opacity="0.921569" />
<rect x="13" y="9" width="1" height="1" fill="#CCCDD0" opacity="0.549020" />
<rect x="14" y="9" width="1" height="1" fill="#FFFFFF" opacity="0.000000" />
<rect x="1" y="10" width="1" height="1" fill="#FFFFFF" opacity="0.000000" />
<rect x="2" y="10" width="1" height="1" fill="#CCCDD0" opacity="0.549020" />
<rect x="3" y="10" width="1" height="1" fill="#EDEFF3" opacity="0.921569" />
<rect x="4" y="10" width="1" height="1" fill="#F1F1F6" opacity="0.905882" />
<rect x="5" y="10" width="1" height="1" fill="#BCEBD9" opacity="0.905882" />
<rect x="6" y="10" width="1" height="1" fill="#9DE9C9" opacity="0.905882" />
<rect x="7" y="10" width="1" height="1" fill="#5AE3A4" opacity="0.905882" />
<rect x="8" y="10" width="1" height="1" fill="#5AE3A4" opacity="0.905882" />
<rect x="9" y="10" width="1" height="1" fill="#9DE9C9" opacity="0.905882" />
<rect x="10" y="10" width="1" height="1" fill="#BCECD9" opacity="0.905882" />
<rect x="11" y="10" width="1" height="1" fill="#F1F1F6" opacity="0.905882" />
<rect x="12" y="10" width="1" height="1" fill="#EDEFF3" opacity="0.921569" />
<rect x="13" y="10" width="1" height="1" fill="#CCCDD0" opacity="0.549020" />
<rect x="14" y="10" width="1" height="1" fill="#FFFFFF" opacity="0.000000" />
<rect x="1" y="11" width="1" height="1" fill="#FFFFFF" opacity="0.000000" />
<rect x="2" y="11" width="1" height="1" fill="#CBCCCF" opacity="0.549020" />
<rect x="3" y="11" width="1" height="1" fill="#E8EBEE" opacity="0.921569" />
<rect x="4" y="11" width="1" height="1" fill="#EAEDF0" opacity="0.905882" />
<rect x="5" y="11" width="1" height="1" fill="#ECEEF2" opacity="0.905882" />
<rect x="6" y="11" width="1" height="1" fill="#EEEDF3" opacity="0.905882" />
<rect x="7" y="11" width="1" height="1" fill="#C5E9DC" opacity="0.905882" />
<rect x="8" y="11" width="1" height="1" fill="#C4E8DB" opacity="0.905882" />
<rect x="9" y="11" width="1" height="1" fill="#ECECF1" opacity="0.905882" />
<rect x="10" y="11" width="1" height="1" fill="#E9EBEF" opacity="0.905882" />
<rect x="11" y="11" width="1" height="1" fill="#E9ECEF" opacity="0.905882" />
<rect x="12" y="11" width="1" height="1" fill="#E6E9EC" opacity="0.921569" />
<rect x="13" y="11" width="1" height="1" fill="#CACCCF" opacity="0.549020" />
<rect x="14" y="11" width="1" height="1" fill="#FFFFFF" opacity="0.000000" />
<rect x="1" y="12" width="1" height="1" fill="#FFFFFF" opacity="0.000000" />
<rect x="2" y="12" width="1" height="1" fill="#BDC2C3" opacity="0.549020" />
<rect x="3" y="12" width="1" height="1" fill="#7C988D" opacity="0.921569" />
<rect x="4" y="12" width="1" height="1" fill="#719083" opacity="0.905882" />
<rect x="5" y="12" width="1" height="1" fill="#79968B" opacity="0.905882" />
<rect x="6" y="12" width="1" height="1" fill="#7F9B90" opacity="0.905882" />
<rect x="7" y="12" width="1" height="1" fill="#90A79F" opacity="0.905882" />
<rect x="8" y="12" width="1" height="1" fill="#7B968C" opacity="0.905882" />
<rect x="9" y="12" width="1" height="1" fill="#7B988D" opacity="0.905882" />
<rect x="10" y="12" width="1" height="1" fill="#729184" opacity="0.905882" />
<rect x="11" y="12" width="1" height="1" fill="#779589" opacity="0.905882" />
<rect x="12" y="12" width="1" height="1" fill="#8DA59C" opacity="0.921569" />
<rect x="13" y="12" width="1" height="1" fill="#C2C5C7" opacity="0.549020" />
<rect x="14" y="12" width="1" height="1" fill="#FFFFFF" opacity="0.000000" />
<rect x="1" y="13" width="1" height="1" fill="#FFFFFF" opacity="0.000000" />
<rect x="2" y="13" width="1" height="1" fill="#BEC2C3" opacity="0.549020" />
<rect x="3" y="13" width="1" height="1" fill="#7A968B" opacity="0.921569" />
<rect x="4" y="13" width="1" height="1" fill="#719083" opacity="0.905882" />
<rect x="5" y="13" width="1" height="1" fill="#7B988C" opacity="0.905882" />
<rect x="6" y="13" width="1" height="1" fill="#769488" opacity="0.905882" />
<rect x="7" y="13" width="1" height="1" fill="#89A299" opacity="0.905882" />
<rect x="8" y="13" width="1" height="1" fill="#7E9A8F" opacity="0.905882" />
<rect x="9" y="13" width="1" height="1" fill="#7B988D" opacity="0.905882" />
<rect x="10" y="13" width="1" height="1" fill="#78958A" opacity="0.905882" />
<rect x="11" y="13" width="1" height="1" fill="#AABCB7" opacity="0.905882" />
<rect x="12" y="13" width="1" height="1" fill="#ADBEBA" opacity="0.921569" />
<rect x="13" y="13" width="1" height="1" fill="#CACCCF" opacity="0.549020" />
<rect x="14" y="13" width="1" height="1" fill="#FFFFFF" opacity="0.000000" />
<rect x="1" y="14" width="1" height="1" fill="#FFFFFF" opacity="0.000000" />
<rect x="2" y="14" width="1" height="1" fill="#C8C9CB" opacity="0.549020" />
<rect x="3" y="14" width="1" height="1" fill="#E1E4E7" opacity="0.917647" />
<rect x="4" y="14" width="1" height="1" fill="#E3E6E9" opacity="0.901961" />
<rect x="5" y="14" width="1" height="1" fill="#E3E6E9" opacity="0.901961" />
<rect x="6" y="14" width="1" height="1" fill="#E3E6E9" opacity="0.901961" />
<rect x="7" y="14" width="1" height="1" fill="#E2E5E8" opacity="0.901961" />
<rect x="8" y="14" width="1" height="1" fill="#E3E6E9" opacity="0.901961" />
<rect x="9" y="14" width="1" height="1" fill="#E1E5E8" opacity="0.901961" />
<rect x="10" y="14" width="1" height="1" fill="#E2E5E8" opacity="0.901961" />
<rect x="11" y="14" width="1" height="1" fill="#E8EAEE" opacity="0.901961" />
<rect x="12" y="14" width="1" height="1" fill="#E3E6E9" opacity="0.917647" />
<rect x="13" y="14" width="1" height="1" fill="#C8C9CC" opacity="0.549020" />
<rect x="14" y="14" width="1" height="1" fill="#FFFFFF" opacity="0.000000" />
<rect x="1" y="15" width="1" height="1" fill="#FFFFFF" opacity="0.000000" />
<rect x="2" y="15" width="1" height="1" fill="#B2B3B5" opacity="0.247059" />
<rect x="3" y="15" width="1" height="1" fill="#C0C1C4" opacity="0.419608" />
<rect x="4" y="15" width="1" height="1" fill="#C1C2C4" opacity="0.411765" />
<rect x="5" y="15" width="1" height="1" fill="#C1C2C4" opacity="0.411765" />
<rect x="6" y="15" width="1" height="1" fill="#C1C2C4" opacity="0.411765" />
<rect x="7" y="15" width="1" height="1" fill="#C1C2C4" opacity="0.411765" />
<rect x="8" y="15" width="1" height="1" fill="#C1C2C5" opacity="0.411765" />
<rect x="9" y="15" width="1" height="1" fill="#C1C2C5" opacity="0.411765" />
<rect x="10" y="15" width="1" height="1" fill="#C1C2C5" opacity="0.411765" />
<rect x="11" y="15" width="1" height="1" fill="#C1C1C4" opacity="0.411765" />
<rect x="12" y="15" width="1" height="1" fill="#C0C1C3" opacity="0.419608" />
<rect x="13" y="15" width="1" height="1" fill="#B2B2B5" opacity="0.247059" />
<rect x="14" y="15" width="1" height="1" fill="#FFFFFF" opacity="0.000000" />
</svg>