<?xml version="1.0" encoding="UTF-8" ?>
<svg version="1.1" width="16" height="16" xmlns="http://www.w3.org/2000/svg" shape-rendering="crispEdges">
<rect x="1" y="0" width="1" height="1" fill="#FFFFFF" opacity="0.000000" />
<rect x="2" y="0" width="1" height="1" fill="#B2B2B5" opacity="0.270588" />
<rect x="3" y="0" width="1" height="1" fill="#C0C0C3" opacity="0.462745" />
<rect x="4" y="0" width="1" height="1" fill="#C0C1C4" opacity="0.454902" />
<rect x="5" y="0" width="1" height="1" fill="#C0C1C4" opacity="0.454902" />
<rect x="6" y="0" width="1" height="1" fill="#C0C1C4" opacity="0.454902" />
<rect x="7" y="0" width="1" height="1" fill="#BFC0C3" opacity="0.435294" />
<rect x="8" y="0" width="1" height="1" fill="#B2B3B5" opacity="0.243137" />
<rect x="9" y="0" width="1" height="1" fill="#7A797A" opacity="0.015686" />
<rect x="10" y="0" width="1" height="1" fill="#A1A1A3" opacity="0.000000" />
<rect x="11" y="0" width="1" height="1" fill="#A5A5A7" opacity="0.000000" />
<rect x="13" y="0" width="1" height="1" fill="#000000" opacity="0.000000" />
<rect x="14" y="0" width="1" height="1" fill="#000000" opacity="0.000000" />
<rect x="15" y="0" width="1" height="1" fill="#000000" opacity="0.000000" />
<rect x="1" y="1" width="1" height="1" fill="#FFFFFF" opacity="0.000000" />
<rect x="2" y="1" width="1" height="1" fill="#C8C9CC" opacity="0.603922" />
<rect x="3" y="1" width="1" height="1" fill="#E6E8EC" />
<rect x="4" y="1" width="1" height="1" fill="#E8EAEE" opacity="0.996078" />
<rect x="5" y="1" width="1" height="1" fill="#E8EAEE" opacity="0.996078" />
<rect x="6" y="1" width="1" height="1" fill="#E8EAEE" opacity="0.996078" />
<rect x="7" y="1" width="1" height="1" fill="#E8E9ED" opacity="0.996078" />
<rect x="8" y="1" width="1" height="1" fill="#DEDFE3" opacity="0.925490" />
<rect x="9" y="1" width="1" height="1" fill="#BABBBE" opacity="0.533333" />
<rect x="10" y="1" width="1" height="1" fill="#8D8C8E" opacity="0.058824" />
<rect x="11" y="1" width="1" height="1" fill="#ADADAF" opacity="0.000000" />
<rect x="12" y="1" width="1" height="1" fill="#B9BABC" opacity="0.000000" />
<rect x="14" y="1" width="1" height="1" fill="#000000" opacity="0.000000" />
<rect x="15" y="1" width="1" height="1" fill="#000000" opacity="0.000000" />
<rect x="1" y="2" width="1" height="1" fill="#FFFFFF" opacity="0.000000" />
<rect x="2" y="2" width="1" height="1" fill="#CCCDD0" opacity="0.607843" />
<rect x="3" y="2" width="1" height="1" fill="#EDEFF3" />
<rect x="4" y="2" width="1" height="1" fill="#EFF1F5" />
<rect x="5" y="2" width="1" height="1" fill="#EFF1F5" />
<rect x="6" y="2" width="1" height="1" fill="#EFF1F5" />
<rect x="7" y="2" width="1" height="1" fill="#EFF1F6" />
<rect x="8" y="2" width="1" height="1" fill="#F0F2F6" />
<rect x="9" y="2" width="1" height="1" fill="#D4D6D9" />
<rect x="10" y="2" width="1" height="1" fill="#C5C5C8" opacity="0.643137" />
<rect x="11" y="2" width="1" height="1" fill="#A9AAAC" opacity="0.094118" />
<rect x="12" y="2" width="1" height="1" fill="#ADAEB0" opacity="0.000000" />
<rect x="13" y="2" width="1" height="1" fill="#AFAFB2" opacity="0.000000" />
<rect x="15" y="2" width="1" height="1" fill="#000000" opacity="0.000000" />
<rect x="1" y="3" width="1" height="1" fill="#FFFFFF" opacity="0.000000" />
<rect x="2" y="3" width="1" height="1" fill="#CCCDD0" opacity="0.607843" />
<rect x="3" y="3" width="1" height="1" fill="#EDEFF3" />
<rect x="4" y="3" width="1" height="1" fill="#EFF1F5" />
<rect x="5" y="3" width="1" height="1" fill="#EFF1F5" />
<rect x="6" y="3" width="1" height="1" fill="#F0F1F5" />
<rect x="7" y="3" width="1" height="1" fill="#F2F1F7" />
<rect x="8" y="3" width="1" height="1" fill="#F2F2F7" />
<rect x="9" y="3" width="1" height="1" fill="#D9DADE" />
<rect x="10" y="3" width="1" height="1" fill="#DADBDF" />
<rect x="11" y="3" width="1" height="1" fill="#C2C3C6" opacity="0.713725" />
<rect x="12" y="3" width="1" height="1" fill="#9B9B9D" opacity="0.133333" />
<rect x="13" y="3" width="1" height="1" fill="#ACACAF" opacity="0.000000" />
<rect x="14" y="3" width="1" height="1" fill="#B2B2B5" opacity="0.000000" />
<rect x="15" y="3" width="1" height="1" fill="#000000" opacity="0.000000" />
<rect x="1" y="4" width="1" height="1" fill="#FFFFFF" opacity="0.000000" />
<rect x="2" y="4" width="1" height="1" fill="#CCCDD0" opacity="0.607843" />
<rect x="3" y="4" width="1" height="1" fill="#EDEFF3" />
<rect x="4" y="4" width="1" height="1" fill="#F0F1F5" />
<rect x="5" y="4" width="1" height="1" fill="#F2F1F7" />
<rect x="6" y="4" width="1" height="1" fill="#E6F0F0" />
<rect x="7" y="4" width="1" height="1" fill="#AEEBD2" />
<rect x="8" y="4" width="1" height="1" fill="#ADEBD1" />
<rect x="9" y="4" width="1" height="1" fill="#DCE7E7" />
<rect x="10" y="4" width="1" height="1" fill="#E4E3E8" />
<rect x="11" y="4" width="1" height="1" fill="#DCDDE1" />
<rect x="12" y="4" width="1" height="1" fill="#C6C7CA" opacity="0.713725" />
<rect x="13" y="4" width="1" height="1" fill="#A3A3A5" opacity="0.074510" />
<rect x="14" y="4" width="1" height="1" fill="#A8A8AA" opacity="0.000000" />
<rect x="1" y="5" width="1" height="1" fill="#FFFFFF" opacity="0.000000" />
<rect x="2" y="5" width="1" height="1" fill="#CCCDD0" opacity="0.607843" />
<rect x="3" y="5" width="1" height="1" fill="#EEEFF3" />
<rect x="4" y="5" width="1" height="1" fill="#E7F0F1" />
<rect x="5" y="5" width="1" height="1" fill="#ADEBD1" />
<rect x="6" y="5" width="1" height="1" fill="#57E3A2" />
<rect x="7" y="5" width="1" height="1" fill="#44E098" />
<rect x="8" y="5" width="1" height="1" fill="#55E2A1" />
<rect x="9" y="5" width="1" height="1" fill="#60E4A7" />
<rect x="10" y="5" width="1" height="1" fill="#ADEBD2" />
<rect x="11" y="5" width="1" height="1" fill="#E8F2F2" />
<rect x="12" y="5" width="1" height="1" fill="#E6E7EB" opacity="0.992157" />
<rect x="13" y="5" width="1" height="1" fill="#BDBEC1" opacity="0.368627" />
<rect x="14" y="5" width="1" height="1" fill="#CECFD2" opacity="0.000000" />
<rect x="15" y="5" width="1" height="1" fill="#9F9F9F" opacity="0.000000" />
<rect x="1" y="6" width="1" height="1" fill="#FFFFFF" opacity="0.000000" />
<rect x="2" y="6" width="1" height="1" fill="#CCCDD0" opacity="0.607843" />
<rect x="3" y="6" width="1" height="1" fill="#F0EFF5" />
<rect x="4" y="6" width="1" height="1" fill="#9FE9C9" />
<rect x="5" y="6" width="1" height="1" fill="#22DE85" />
<rect x="6" y="6" width="1" height="1" fill="#17DD7E" />
<rect x="7" y="6" width="1" height="1" fill="#35DF90" />
<rect x="8" y="6" width="1" height="1" fill="#7BE5B6" />
<rect x="9" y="6" width="1" height="1" fill="#57E2A2" />
<rect x="10" y="6" width="1" height="1" fill="#22DE85" />
<rect x="11" y="6" width="1" height="1" fill="#9FE9C9" />
<rect x="12" y="6" width="1" height="1" fill="#EFEFF4" />
<rect x="13" y="6" width="1" height="1" fill="#CACBCE" opacity="0.572549" />
<rect x="14" y="6" width="1" height="1" fill="#FFFFFF" opacity="0.000000" />
<rect x="1" y="7" width="1" height="1" fill="#FFFFFF" opacity="0.000000" />
<rect x="2" y="7" width="1" height="1" fill="#CCCDD0" opacity="0.607843" />
<rect x="3" y="7" width="1" height="1" fill="#F0EFF5" />
<rect x="4" y="7" width="1" height="1" fill="#8BE7BE" />
<rect x="5" y="7" width="1" height="1" fill="#50E29E" />
<rect x="6" y="7" width="1" height="1" fill="#56E2A2" />
<rect x="7" y="7" width="1" height="1" fill="#21DE84" />
<rect x="8" y="7" width="1" height="1" fill="#23DE85" />
<rect x="9" y="7" width="1" height="1" fill="#5BE3A4" />
<rect x="10" y="7" width="1" height="1" fill="#4FE29E" />
<rect x="11" y="7" width="1" height="1" fill="#8BE7BE" />
<rect x="12" y="7" width="1" height="1" fill="#F0EFF5" />
<rect x="13" y="7" width="1" height="1" fill="#CCCDD0" opacity="0.611765" />
<rect x="14" y="7" width="1" height="1" fill="#FFFFFF" opacity="0.000000" />
<rect x="1" y="8" width="1" height="1" fill="#FFFFFF" opacity="0.000000" />
<rect x="2" y="8" width="1" height="1" fill="#CCCDD0" opacity="0.607843" />
<rect x="3" y="8" width="1" height="1" fill="#F0EFF5" />
<rect x="4" y="8" width="1" height="1" fill="#89E7BD" />
<rect x="5" y="8" width="1" height="1" fill="#80E6B8" />
<rect x="6" y="8" width="1" height="1" fill="#EAF0F3" />
<rect x="7" y="8" width="1" height="1" fill="#6FE4AF" />
<rect x="8" y="8" width="1" height="1" fill="#6FE5AF" />
<rect x="9" y="8" width="1" height="1" fill="#EAF0F2" />
<rect x="10" y="8" width="1" height="1" fill="#80E6B8" />
<rect x="11" y="8" width="1" height="1" fill="#89E7BD" />
<rect x="12" y="8" width="1" height="1" fill="#F0EFF5" />
<rect x="13" y="8" width="1" height="1" fill="#CCCDD0" opacity="0.607843" />
<rect x="14" y="8" width="1" height="1" fill="#FFFFFF" opacity="0.000000" />
<rect x="1" y="9" width="1" height="1" fill="#FFFFFF" opacity="0.000000" />
<rect x="2" y="9" width="1" height="1" fill="#CCCDD0" opacity="0.607843" />
<rect x="3" y="9" width="1" height="1" fill="#F0EFF5" />
<rect x="4" y="9" width="1" height="1" fill="#9DE9C9" />
<rect x="5" y="9" width="1" height="1" fill="#47E199" />
<rect x="6" y="9" width="1" height="1" fill="#A4E9CC" />
<rect x="7" y="9" width="1" height="1" fill="#7AE5B5" />
<rect x="8" y="9" width="1" height="1" fill="#7AE5B5" />
<rect x="9" y="9" width="1" height="1" fill="#A4E9CC" />
<rect x="10" y="9" width="1" height="1" fill="#47E199" />
<rect x="11" y="9" width="1" height="1" fill="#9DE9C9" />
<rect x="12" y="9" width="1" height="1" fill="#F0EFF5" />
<rect x="13" y="9" width="1" height="1" fill="#CCCDD0" opacity="0.607843" />
<rect x="14" y="9" width="1" height="1" fill="#FFFFFF" opacity="0.000000" />
<rect x="1" y="10" width="1" height="1" fill="#FFFFFF" opacity="0.000000" />
<rect x="2" y="10" width="1" height="1" fill="#CCCDD0" opacity="0.607843" />
<rect x="3" y="10" width="1" height="1" fill="#EEEFF3" />
<rect x="4" y="10" width="1" height="1" fill="#E7F0F1" />
<rect x="5" y="10" width="1" height="1" fill="#ABEAD0" />
<rect x="6" y="10" width="1" height="1" fill="#5EE3A6" />
<rect x="7" y="10" width="1" height="1" fill="#31DF8E" />
<rect x="8" y="10" width="1" height="1" fill="#31DF8E" />
<rect x="9" y="10" width="1" height="1" fill="#5EE3A6" />
<rect x="10" y="10" width="1" height="1" fill="#ABEAD0" />
<rect x="11" y="10" width="1" height="1" fill="#E7F0F1" />
<rect x="12" y="10" width="1" height="1" fill="#EEEFF3" />
<rect x="13" y="10" width="1" height="1" fill="#CCCDD0" opacity="0.607843" />
<rect x="14" y="10" width="1" height="1" fill="#FFFFFF" opacity="0.000000" />
<rect x="1" y="11" width="1" height="1" fill="#FFFFFF" opacity="0.000000" />
<rect x="2" y="11" width="1" height="1" fill="#CCCDD0" opacity="0.607843" />
<rect x="3" y="11" width="1" height="1" fill="#EEF0F4" />
<rect x="4" y="11" width="1" height="1" fill="#F1F2F6" />
<rect x="5" y="11" width="1" height="1" fill="#F3F2F7" />
<rect x="6" y="11" width="1" height="1" fill="#E6F1F1" />
<rect x="7" y="11" width="1" height="1" fill="#B0EBD3" />
<rect x="8" y="11" width="1" height="1" fill="#B0ECD3" />
<rect x="9" y="11" width="1" height="1" fill="#E6F1F1" />
<rect x="10" y="11" width="1" height="1" fill="#F4F2F8" />
<rect x="11" y="11" width="1" height="1" fill="#F0F1F6" />
<rect x="12" y="11" width="1" height="1" fill="#EEEFF3" />
<rect x="13" y="11" width="1" height="1" fill="#CCCDD0" opacity="0.607843" />
<rect x="14" y="11" width="1" height="1" fill="#FFFFFF" opacity="0.000000" />
<rect x="1" y="12" width="1" height="1" fill="#FFFFFF" opacity="0.000000" />
<rect x="2" y="12" width="1" height="1" fill="#B5BBBB" opacity="0.607843" />
<rect x="3" y="12" width="1" height="1" fill="#A2B5B0" />
<rect x="4" y="12" width="1" height="1" fill="#A8BAB6" />
<rect x="5" y="12" width="1" height="1" fill="#B0C0BD" />
<rect x="6" y="12" width="1" height="1" fill="#B4C3C0" />
<rect x="7" y="12" width="1" height="1" fill="#B1BEBC" />
<rect x="8" y="12" width="1" height="1" fill="#B8C4C3" />
<rect x="9" y="12" width="1" height="1" fill="#ACBCB9" />
<rect x="10" y="12" width="1" height="1" fill="#A5B7B3" />
<rect x="11" y="12" width="1" height="1" fill="#B9C7C5" />
<rect x="12" y="12" width="1" height="1" fill="#A9BAB6" />
<rect x="13" y="12" width="1" height="1" fill="#A5AFAE" opacity="0.607843" />
<rect x="14" y="12" width="1" height="1" fill="#D9FFFF" opacity="0.000000" />
<rect x="1" y="13" width="1" height="1" fill="#FFFFFF" opacity="0.000000" />
<rect x="2" y="13" width="1" height="1" fill="#B0B7B7" opacity="0.607843" />
<rect x="3" y="13" width="1" height="1" fill="#98ADA7" />
<rect x="4" y="13" width="1" height="1" fill="#94AAA4" />
<rect x="5" y="13" width="1" height="1" fill="#A6B8B4" />
<rect x="6" y="13" width="1" height="1" fill="#9AAFA9" />
<rect x="7" y="13" width="1" height="1" fill="#9DB1AC" />
<rect x="8" y="13" width="1" height="1" fill="#9BAFAA" />
<rect x="9" y="13" width="1" height="1" fill="#9AAFA9" />
<rect x="10" y="13" width="1" height="1" fill="#96ACA6" />
<rect x="11" y="13" width="1" height="1" fill="#AABBB7" />
<rect x="12" y="13" width="1" height="1" fill="#9BAFA9" />
<rect x="13" y="13" width="1" height="1" fill="#9DA9A7" opacity="0.607843" />
<rect x="14" y="13" width="1" height="1" fill="#77FFDD" opacity="0.000000" />
<rect x="1" y="14" width="1" height="1" fill="#FFFFFF" opacity="0.000000" />
<rect x="2" y="14" width="1" height="1" fill="#C8C9CC" opacity="0.603922" />
<rect x="3" y="14" width="1" height="1" fill="#E5E7EB" />
<rect x="4" y="14" width="1" height="1" fill="#E4E7EB" opacity="0.996078" />
<rect x="5" y="14" width="1" height="1" fill="#E4E7EA" opacity="0.996078" />
<rect x="6" y="14" width="1" height="1" fill="#E5E8EB" opacity="0.996078" />
<rect x="7" y="14" width="1" height="1" fill="#E5E7EB" opacity="0.996078" />
<rect x="8" y="14" width="1" height="1" fill="#E5E8EB" opacity="0.996078" />
<rect x="9" y="14" width="1" height="1" fill="#E6E8EC" opacity="0.996078" />
<rect x="10" y="14" width="1" height="1" fill="#E7E9ED" opacity="0.996078" />
<rect x="11" y="14" width="1" height="1" fill="#E4E7EA" opacity="0.996078" />
<rect x="12" y="14" width="1" height="1" fill="#E2E5E8" />
<rect x="13" y="14" width="1" height="1" fill="#C5C7CA" opacity="0.603922" />
<rect x="14" y="14" width="1" height="1" fill="#FFFFFF" opacity="0.000000" />
<rect x="1" y="15" width="1" height="1" fill="#FFFFFF" opacity="0.000000" />
<rect x="2" y="15" width="1" height="1" fill="#B2B3B5" opacity="0.274510" />
<rect x="3" y="15" width="1" height="1" fill="#C0C1C4" opacity="0.462745" />
<rect x="4" y="15" width="1" height="1" fill="#C1C2C5" opacity="0.454902" />
<rect x="5" y="15" width="1" height="1" fill="#C1C2C5" opacity="0.454902" />
<rect x="6" y="15" width="1" height="1" fill="#C1C2C4" opacity="0.454902" />
<rect x="7" y="15" width="1" height="1" fill="#C1C2C4" opacity="0.454902" />
<rect x="8" y="15" width="1" height="1" fill="#C1C2C4" opacity="0.454902" />
<rect x="9" y="15" width="1" height="1" fill="#C1C2C4" opacity="0.454902" />
<rect x="10" y="15" width="1" height="1" fill="#C1C1C4" opacity="0.454902" />
<rect x="11" y="15" width="1" height="1" fill="#C1C2C5" opacity="0.454902" />
<rect x="12" y="15" width="1" height="1" fill="#C0C1C4" opacity="0.462745" />
<rect x="13" y="15" width="1" height="1" fill="#B2B3B5" opacity="0.274510" />
<rect x="14" y="15" width="1" height="1" fill="#FFFFFF" opacity="0.000000" />
</svg>