<?xml version="1.0" encoding="UTF-8" ?>
<svg version="1.1" width="32" height="32" xmlns="http://www.w3.org/2000/svg" shape-rendering="crispEdges">
<rect x="4" y="0" width="1" height="1" fill="#9F9FA1" opacity="0.003922" />
<rect x="5" y="0" width="1" height="1" fill="#858586" opacity="0.027451" />
<rect x="6" y="0" width="1" height="1" fill="#787778" opacity="0.031373" />
<rect x="7" y="0" width="1" height="1" fill="#797879" opacity="0.031373" />
<rect x="8" y="0" width="1" height="1" fill="#797879" opacity="0.031373" />
<rect x="9" y="0" width="1" height="1" fill="#797879" opacity="0.031373" />
<rect x="10" y="0" width="1" height="1" fill="#797879" opacity="0.031373" />
<rect x="11" y="0" width="1" height="1" fill="#797879" opacity="0.031373" />
<rect x="12" y="0" width="1" height="1" fill="#797879" opacity="0.031373" />
<rect x="13" y="0" width="1" height="1" fill="#797879" opacity="0.031373" />
<rect x="14" y="0" width="1" height="1" fill="#787778" opacity="0.031373" />
<rect x="15" y="0" width="1" height="1" fill="#5F5D5E" opacity="0.015686" />
<rect x="4" y="1" width="1" height="1" fill="#9F9FA1" opacity="0.196078" />
<rect x="5" y="1" width="1" height="1" fill="#AEAFB1" opacity="0.701961" />
<rect x="6" y="1" width="1" height="1" fill="#B7B8BB" opacity="0.725490" />
<rect x="7" y="1" width="1" height="1" fill="#B7B8BA" opacity="0.721569" />
<rect x="8" y="1" width="1" height="1" fill="#B7B8BA" opacity="0.721569" />
<rect x="9" y="1" width="1" height="1" fill="#B7B8BA" opacity="0.721569" />
<rect x="10" y="1" width="1" height="1" fill="#B7B8BA" opacity="0.721569" />
<rect x="11" y="1" width="1" height="1" fill="#B7B8BA" opacity="0.721569" />
<rect x="12" y="1" width="1" height="1" fill="#B7B8BA" opacity="0.721569" />
<rect x="13" y="1" width="1" height="1" fill="#B7B8BA" opacity="0.721569" />
<rect x="14" y="1" width="1" height="1" fill="#B7B8BA" opacity="0.721569" />
<rect x="15" y="1" width="1" height="1" fill="#B4B4B7" opacity="0.674510" />
<rect x="16" y="1" width="1" height="1" fill="#A9A9AB" opacity="0.490196" />
<rect x="17" y="1" width="1" height="1" fill="#9B9B9D" opacity="0.188235" />
<rect x="4" y="2" width="1" height="1" fill="#9F9FA1" opacity="0.290196" />
<rect x="5" y="2" width="1" height="1" fill="#CED0D3" opacity="0.992157" />
<rect x="6" y="2" width="1" height="1" fill="#EBEDF1" />
<rect x="7" y="2" width="1" height="1" fill="#EAECF0" />
<rect x="8" y="2" width="1" height="1" fill="#EAECF0" />
<rect x="9" y="2" width="1" height="1" fill="#EAECF0" />
<rect x="10" y="2" width="1" height="1" fill="#EAECF0" />
<rect x="11" y="2" width="1" height="1" fill="#EAECF0" />
<rect x="12" y="2" width="1" height="1" fill="#EAECF0" />
<rect x="13" y="2" width="1" height="1" fill="#EAECF0" />
<rect x="14" y="2" width="1" height="1" fill="#EAECF0" />
<rect x="15" y="2" width="1" height="1" fill="#E8E9ED" />
<rect x="16" y="2" width="1" height="1" fill="#DDDEE2" />
<rect x="17" y="2" width="1" height="1" fill="#C3C4C7" opacity="0.905882" />
<rect x="18" y="2" width="1" height="1" fill="#A5A5A8" opacity="0.490196" />
<rect x="19" y="2" width="1" height="1" fill="#99999B" opacity="0.058824" />
<rect x="4" y="3" width="1" height="1" fill="#9F9FA1" opacity="0.286275" />
<rect x="5" y="3" width="1" height="1" fill="#D2D3D6" opacity="0.976471" />
<rect x="6" y="3" width="1" height="1" fill="#F1F3F7" />
<rect x="7" y="3" width="1" height="1" fill="#EFF1F5" />
<rect x="8" y="3" width="1" height="1" fill="#EFF1F5" />
<rect x="9" y="3" width="1" height="1" fill="#EFF1F5" />
<rect x="10" y="3" width="1" height="1" fill="#EFF1F5" />
<rect x="11" y="3" width="1" height="1" fill="#EFF1F5" />
<rect x="12" y="3" width="1" height="1" fill="#EFF1F5" />
<rect x="13" y="3" width="1" height="1" fill="#EFF1F5" />
<rect x="14" y="3" width="1" height="1" fill="#EFF1F5" />
<rect x="15" y="3" width="1" height="1" fill="#EFF1F5" />
<rect x="16" y="3" width="1" height="1" fill="#F0F2F6" />
<rect x="17" y="3" width="1" height="1" fill="#EDEFF3" />
<rect x="18" y="3" width="1" height="1" fill="#C7C8CB" opacity="0.996078" />
<rect x="19" y="3" width="1" height="1" fill="#A0A0A2" opacity="0.658824" />
<rect x="20" y="3" width="1" height="1" fill="#99999B" opacity="0.105882" />
<rect x="4" y="4" width="1" height="1" fill="#9F9FA1" opacity="0.286275" />
<rect x="5" y="4" width="1" height="1" fill="#D2D3D6" opacity="0.976471" />
<rect x="6" y="4" width="1" height="1" fill="#F0F2F6" />
<rect x="7" y="4" width="1" height="1" fill="#EFF1F5" />
<rect x="8" y="4" width="1" height="1" fill="#EFF1F5" />
<rect x="9" y="4" width="1" height="1" fill="#EFF1F5" />
<rect x="10" y="4" width="1" height="1" fill="#EFF1F5" />
<rect x="11" y="4" width="1" height="1" fill="#EFF1F5" />
<rect x="12" y="4" width="1" height="1" fill="#EFF1F5" />
<rect x="13" y="4" width="1" height="1" fill="#EFF1F5" />
<rect x="14" y="4" width="1" height="1" fill="#EFF1F5" />
<rect x="15" y="4" width="1" height="1" fill="#EFF1F5" />
<rect x="16" y="4" width="1" height="1" fill="#EFF1F5" />
<rect x="17" y="4" width="1" height="1" fill="#F0F2F6" />
<rect x="18" y="4" width="1" height="1" fill="#E5E7EB" />
<rect x="19" y="4" width="1" height="1" fill="#B7B8BA" />
<rect x="20" y="4" width="1" height="1" fill="#B2B3B5" opacity="0.737255" />
<rect x="21" y="4" width="1" height="1" fill="#99999B" opacity="0.156863" />
<rect x="4" y="5" width="1" height="1" fill="#9F9FA1" opacity="0.286275" />
<rect x="5" y="5" width="1" height="1" fill="#D2D3D6" opacity="0.976471" />
<rect x="6" y="5" width="1" height="1" fill="#F0F2F6" />
<rect x="7" y="5" width="1" height="1" fill="#EFF1F5" />
<rect x="8" y="5" width="1" height="1" fill="#EFF1F5" />
<rect x="9" y="5" width="1" height="1" fill="#EFF1F5" />
<rect x="10" y="5" width="1" height="1" fill="#EFF1F5" />
<rect x="11" y="5" width="1" height="1" fill="#EFF1F5" />
<rect x="12" y="5" width="1" height="1" fill="#EFF1F5" />
<rect x="13" y="5" width="1" height="1" fill="#EFF1F5" />
<rect x="14" y="5" width="1" height="1" fill="#EFF1F5" />
<rect x="15" y="5" width="1" height="1" fill="#EFF1F5" />
<rect x="16" y="5" width="1" height="1" fill="#EFF1F5" />
<rect x="17" y="5" width="1" height="1" fill="#EFF1F5" />
<rect x="18" y="5" width="1" height="1" fill="#EAECEF" />
<rect x="19" y="5" width="1" height="1" fill="#C7C8CB" />
<rect x="20" y="5" width="1" height="1" fill="#DEE0E3" />
<rect x="21" y="5" width="1" height="1" fill="#B9B9BC" opacity="0.800000" />
<rect x="22" y="5" width="1" height="1" fill="#9C9B9D" opacity="0.215686" />
<rect x="4" y="6" width="1" height="1" fill="#9F9FA1" opacity="0.286275" />
<rect x="5" y="6" width="1" height="1" fill="#D2D3D6" opacity="0.976471" />
<rect x="6" y="6" width="1" height="1" fill="#F0F2F6" />
<rect x="7" y="6" width="1" height="1" fill="#EFF1F5" />
<rect x="8" y="6" width="1" height="1" fill="#EFF1F5" />
<rect x="9" y="6" width="1" height="1" fill="#EFF1F5" />
<rect x="10" y="6" width="1" height="1" fill="#EFF1F5" />
<rect x="11" y="6" width="1" height="1" fill="#EFF1F5" />
<rect x="12" y="6" width="1" height="1" fill="#EFF1F5" />
<rect x="13" y="6" width="1" height="1" fill="#EFF1F5" />
<rect x="14" y="6" width="1" height="1" fill="#EFF1F5" />
<rect x="15" y="6" width="1" height="1" fill="#EFF1F5" />
<rect x="16" y="6" width="1" height="1" fill="#EFF1F5" />
<rect x="17" y="6" width="1" height="1" fill="#EFF1F5" />
<rect x="18" y="6" width="1" height="1" fill="#E7E9EC" />
<rect x="19" y="6" width="1" height="1" fill="#C8C9CC" />
<rect x="20" y="6" width="1" height="1" fill="#F0F2F6" />
<rect x="21" y="6" width="1" height="1" fill="#E6E8EC" />
<rect x="22" y="6" width="1" height="1" fill="#BFBFC2" opacity="0.854902" />
<rect x="23" y="6" width="1" height="1" fill="#A0A0A2" opacity="0.282353" />
<rect x="4" y="7" width="1" height="1" fill="#9F9FA1" opacity="0.286275" />
<rect x="5" y="7" width="1" height="1" fill="#D2D3D6" opacity="0.976471" />
<rect x="6" y="7" width="1" height="1" fill="#F0F2F6" />
<rect x="7" y="7" width="1" height="1" fill="#EFF1F5" />
<rect x="8" y="7" width="1" height="1" fill="#EFF1F5" />
<rect x="9" y="7" width="1" height="1" fill="#EFF1F5" />
<rect x="10" y="7" width="1" height="1" fill="#EFF1F5" />
<rect x="11" y="7" width="1" height="1" fill="#EFF1F5" />
<rect x="12" y="7" width="1" height="1" fill="#EFF1F5" />
<rect x="13" y="7" width="1" height="1" fill="#EFF1F5" />
<rect x="14" y="7" width="1" height="1" fill="#EFF1F5" />
<rect x="15" y="7" width="1" height="1" fill="#F0F1F5" />
<rect x="16" y="7" width="1" height="1" fill="#F0F1F5" />
<rect x="17" y="7" width="1" height="1" fill="#F0F2F6" />
<rect x="18" y="7" width="1" height="1" fill="#E3E4E8" />
<rect x="19" y="7" width="1" height="1" fill="#BFC0C3" />
<rect x="20" y="7" width="1" height="1" fill="#D7D9DC" />
<rect x="21" y="7" width="1" height="1" fill="#DADCDF" />
<rect x="22" y="7" width="1" height="1" fill="#D7D9DC" />
<rect x="23" y="7" width="1" height="1" fill="#B7B8BB" opacity="0.901961" />
<rect x="24" y="7" width="1" height="1" fill="#9E9E9F" opacity="0.341176" />
<rect x="4" y="8" width="1" height="1" fill="#9F9FA1" opacity="0.286275" />
<rect x="5" y="8" width="1" height="1" fill="#D2D3D6" opacity="0.976471" />
<rect x="6" y="8" width="1" height="1" fill="#F0F2F6" />
<rect x="7" y="8" width="1" height="1" fill="#EFF1F5" />
<rect x="8" y="8" width="1" height="1" fill="#EFF1F5" />
<rect x="9" y="8" width="1" height="1" fill="#EFF1F5" />
<rect x="10" y="8" width="1" height="1" fill="#EFF1F5" />
<rect x="11" y="8" width="1" height="1" fill="#EFF1F5" />
<rect x="12" y="8" width="1" height="1" fill="#EFF1F5" />
<rect x="13" y="8" width="1" height="1" fill="#F0F1F5" />
<rect x="14" y="8" width="1" height="1" fill="#F2F1F7" />
<rect x="15" y="8" width="1" height="1" fill="#E7F0F1" />
<rect x="16" y="8" width="1" height="1" fill="#E7F0F1" />
<rect x="17" y="8" width="1" height="1" fill="#F2F2F7" />
<rect x="18" y="8" width="1" height="1" fill="#EBECF0" />
<rect x="19" y="8" width="1" height="1" fill="#D4D5D9" />
<rect x="20" y="8" width="1" height="1" fill="#D3D4D7" />
<rect x="21" y="8" width="1" height="1" fill="#D1D2D6" />
<rect x="22" y="8" width="1" height="1" fill="#CECFD2" />
<rect x="23" y="8" width="1" height="1" fill="#C4C5C8" />
<rect x="24" y="8" width="1" height="1" fill="#ADAEB0" opacity="0.921569" />
<rect x="25" y="8" width="1" height="1" fill="#9F9FA1" opacity="0.309804" />
<rect x="4" y="9" width="1" height="1" fill="#9F9FA1" opacity="0.286275" />
<rect x="5" y="9" width="1" height="1" fill="#D2D3D6" opacity="0.976471" />
<rect x="6" y="9" width="1" height="1" fill="#F0F2F6" />
<rect x="7" y="9" width="1" height="1" fill="#EFF1F5" />
<rect x="8" y="9" width="1" height="1" fill="#EFF1F5" />
<rect x="9" y="9" width="1" height="1" fill="#EFF1F5" />
<rect x="10" y="9" width="1" height="1" fill="#EFF1F5" />
<rect x="11" y="9" width="1" height="1" fill="#F0F1F5" />
<rect x="12" y="9" width="1" height="1" fill="#F2F1F7" />
<rect x="13" y="9" width="1" height="1" fill="#E4F0EF" />
<rect x="14" y="9" width="1" height="1" fill="#A9EACF" />
<rect x="15" y="9" width="1" height="1" fill="#58E2A3" />
<rect x="16" y="9" width="1" height="1" fill="#58E2A3" />
<rect x="17" y="9" width="1" height="1" fill="#A9EACF" />
<rect x="18" y="9" width="1" height="1" fill="#E5F0F0" />
<rect x="19" y="9" width="1" height="1" fill="#F3F3F8" />
<rect x="20" y="9" width="1" height="1" fill="#F1F2F7" />
<rect x="21" y="9" width="1" height="1" fill="#F0F2F6" />
<rect x="22" y="9" width="1" height="1" fill="#F0F2F6" />
<rect x="23" y="9" width="1" height="1" fill="#EEF0F4" />
<rect x="24" y="9" width="1" height="1" fill="#E4E6EA" />
<rect x="25" y="9" width="1" height="1" fill="#BBBCBE" opacity="0.839216" />
<rect x="26" y="9" width="1" height="1" fill="#99999A" opacity="0.141176" />
<rect x="4" y="10" width="1" height="1" fill="#9F9FA1" opacity="0.286275" />
<rect x="5" y="10" width="1" height="1" fill="#D2D3D6" opacity="0.976471" />
<rect x="6" y="10" width="1" height="1" fill="#F0F2F6" />
<rect x="7" y="10" width="1" height="1" fill="#EFF1F5" />
<rect x="8" y="10" width="1" height="1" fill="#EFF1F5" />
<rect x="9" y="10" width="1" height="1" fill="#F0F1F5" />
<rect x="10" y="10" width="1" height="1" fill="#F2F1F7" />
<rect x="11" y="10" width="1" height="1" fill="#E4F0EF" />
<rect x="12" y="10" width="1" height="1" fill="#A9EACF" />
<rect x="13" y="10" width="1" height="1" fill="#55E2A1" />
<rect x="14" y="10" width="1" height="1" fill="#22DE85" />
<rect x="15" y="10" width="1" height="1" fill="#1BDE81" />
<rect x="16" y="10" width="1" height="1" fill="#1ADD81" />
<rect x="17" y="10" width="1" height="1" fill="#20DE84" />
<rect x="18" y="10" width="1" height="1" fill="#55E2A1" />
<rect x="19" y="10" width="1" height="1" fill="#A9EACF" />
<rect x="20" y="10" width="1" height="1" fill="#E4F0EF" />
<rect x="21" y="10" width="1" height="1" fill="#F2F1F7" />
<rect x="22" y="10" width="1" height="1" fill="#F0F1F5" />
<rect x="23" y="10" width="1" height="1" fill="#EFF1F5" />
<rect x="24" y="10" width="1" height="1" fill="#F0F2F7" />
<rect x="25" y="10" width="1" height="1" fill="#DCDDE1" />
<rect x="26" y="10" width="1" height="1" fill="#A9AAAC" opacity="0.517647" />
<rect x="4" y="11" width="1" height="1" fill="#9F9FA1" opacity="0.286275" />
<rect x="5" y="11" width="1" height="1" fill="#D2D3D6" opacity="0.976471" />
<rect x="6" y="11" width="1" height="1" fill="#F0F2F6" />
<rect x="7" y="11" width="1" height="1" fill="#EFF1F5" />
<rect x="8" y="11" width="1" height="1" fill="#F0F1F5" />
<rect x="9" y="11" width="1" height="1" fill="#E5F0F0" />
<rect x="10" y="11" width="1" height="1" fill="#A9EACF" />
<rect x="11" y="11" width="1" height="1" fill="#55E2A1" />
<rect x="12" y="11" width="1" height="1" fill="#23DE85" />
<rect x="13" y="11" width="1" height="1" fill="#19DE80" />
<rect x="14" y="11" width="1" height="1" fill="#2CDE8B" />
<rect x="15" y="11" width="1" height="1" fill="#8DE6C0" />
<rect x="16" y="11" width="1" height="1" fill="#97E7C6" />
<rect x="17" y="11" width="1" height="1" fill="#45E098" />
<rect x="18" y="11" width="1" height="1" fill="#1BDE81" />
<rect x="19" y="11" width="1" height="1" fill="#21DE84" />
<rect x="20" y="11" width="1" height="1" fill="#55E2A1" />
<rect x="21" y="11" width="1" height="1" fill="#A9EACF" />
<rect x="22" y="11" width="1" height="1" fill="#E5F0F0" />
<rect x="23" y="11" width="1" height="1" fill="#F0F1F5" />
<rect x="24" y="11" width="1" height="1" fill="#EFF1F5" />
<rect x="25" y="11" width="1" height="1" fill="#ECEEF2" />
<rect x="26" y="11" width="1" height="1" fill="#BCBCBF" opacity="0.807843" />
<rect x="27" y="11" width="1" height="1" fill="#8F8E90" opacity="0.074510" />
<rect x="4" y="12" width="1" height="1" fill="#9F9FA1" opacity="0.286275" />
<rect x="5" y="12" width="1" height="1" fill="#D2D3D6" opacity="0.976471" />
<rect x="6" y="12" width="1" height="1" fill="#F0F2F6" />
<rect x="7" y="12" width="1" height="1" fill="#EFF1F5" />
<rect x="8" y="12" width="1" height="1" fill="#E8F0F2" />
<rect x="9" y="12" width="1" height="1" fill="#6FE4B0" />
<rect x="10" y="12" width="1" height="1" fill="#21DE84" />
<rect x="11" y="12" width="1" height="1" fill="#1ADE80" />
<rect x="12" y="12" width="1" height="1" fill="#1DDE82" />
<rect x="13" y="12" width="1" height="1" fill="#1DDE82" />
<rect x="14" y="12" width="1" height="1" fill="#25DE87" />
<rect x="15" y="12" width="1" height="1" fill="#64E2AA" />
<rect x="16" y="12" width="1" height="1" fill="#B9EAD8" />
<rect x="17" y="12" width="1" height="1" fill="#D5EDE8" />
<rect x="18" y="12" width="1" height="1" fill="#98E7C6" />
<rect x="19" y="12" width="1" height="1" fill="#3CDF94" />
<rect x="20" y="12" width="1" height="1" fill="#19DE80" />
<rect x="21" y="12" width="1" height="1" fill="#21DE84" />
<rect x="22" y="12" width="1" height="1" fill="#6FE4B0" />
<rect x="23" y="12" width="1" height="1" fill="#E8F0F2" />
<rect x="24" y="12" width="1" height="1" fill="#EFF1F5" />
<rect x="25" y="12" width="1" height="1" fill="#F0F2F6" />
<rect x="26" y="12" width="1" height="1" fill="#C9CACD" opacity="0.933333" />
<rect x="27" y="12" width="1" height="1" fill="#99999B" opacity="0.192157" />
<rect x="4" y="13" width="1" height="1" fill="#9F9FA1" opacity="0.286275" />
<rect x="5" y="13" width="1" height="1" fill="#D2D3D6" opacity="0.976471" />
<rect x="6" y="13" width="1" height="1" fill="#F0F2F6" />
<rect x="7" y="13" width="1" height="1" fill="#F0F1F6" />
<rect x="8" y="13" width="1" height="1" fill="#DDEFEC" />
<rect x="9" y="13" width="1" height="1" fill="#3EE095" />
<rect x="10" y="13" width="1" height="1" fill="#1ADE80" />
<rect x="11" y="13" width="1" height="1" fill="#1BDE81" />
<rect x="12" y="13" width="1" height="1" fill="#1DDE82" />
<rect x="13" y="13" width="1" height="1" fill="#1DDE82" />
<rect x="14" y="13" width="1" height="1" fill="#1CDE82" />
<rect x="15" y="13" width="1" height="1" fill="#1ADE80" />
<rect x="16" y="13" width="1" height="1" fill="#27DE88" />
<rect x="17" y="13" width="1" height="1" fill="#65E3AA" />
<rect x="18" y="13" width="1" height="1" fill="#92E6C3" />
<rect x="19" y="13" width="1" height="1" fill="#41DF96" />
<rect x="20" y="13" width="1" height="1" fill="#1ADE80" />
<rect x="21" y="13" width="1" height="1" fill="#1ADE80" />
<rect x="22" y="13" width="1" height="1" fill="#3EE095" />
<rect x="23" y="13" width="1" height="1" fill="#DDEFEC" />
<rect x="24" y="13" width="1" height="1" fill="#F0F1F6" />
<rect x="25" y="13" width="1" height="1" fill="#F0F2F6" />
<rect x="26" y="13" width="1" height="1" fill="#D1D2D5" opacity="0.972549" />
<rect x="27" y="13" width="1" height="1" fill="#9E9EA0" opacity="0.274510" />
<rect x="4" y="14" width="1" height="1" fill="#9F9FA1" opacity="0.286275" />
<rect x="5" y="14" width="1" height="1" fill="#D2D3D6" opacity="0.976471" />
<rect x="6" y="14" width="1" height="1" fill="#F0F2F6" />
<rect x="7" y="14" width="1" height="1" fill="#F0F1F6" />
<rect x="8" y="14" width="1" height="1" fill="#DDEFEC" />
<rect x="9" y="14" width="1" height="1" fill="#3FE095" />
<rect x="10" y="14" width="1" height="1" fill="#22DE85" />
<rect x="11" y="14" width="1" height="1" fill="#3FDF96" />
<rect x="12" y="14" width="1" height="1" fill="#21DE84" />
<rect x="13" y="14" width="1" height="1" fill="#1ADE80" />
<rect x="14" y="14" width="1" height="1" fill="#1DDE82" />
<rect x="15" y="14" width="1" height="1" fill="#1DDE82" />
<rect x="16" y="14" width="1" height="1" fill="#1CDE82" />
<rect x="17" y="14" width="1" height="1" fill="#1ADE80" />
<rect x="18" y="14" width="1" height="1" fill="#19DD80" />
<rect x="19" y="14" width="1" height="1" fill="#1FDE83" />
<rect x="20" y="14" width="1" height="1" fill="#3FE095" />
<rect x="21" y="14" width="1" height="1" fill="#22DE85" />
<rect x="22" y="14" width="1" height="1" fill="#3FE095" />
<rect x="23" y="14" width="1" height="1" fill="#DDEFEC" />
<rect x="24" y="14" width="1" height="1" fill="#F0F1F6" />
<rect x="25" y="14" width="1" height="1" fill="#F0F2F6" />
<rect x="26" y="14" width="1" height="1" fill="#D2D3D6" opacity="0.976471" />
<rect x="27" y="14" width="1" height="1" fill="#9F9FA1" opacity="0.286275" />
<rect x="4" y="15" width="1" height="1" fill="#9F9FA1" opacity="0.286275" />
<rect x="5" y="15" width="1" height="1" fill="#D2D3D6" opacity="0.976471" />
<rect x="6" y="15" width="1" height="1" fill="#F0F2F6" />
<rect x="7" y="15" width="1" height="1" fill="#F0F1F6" />
<rect x="8" y="15" width="1" height="1" fill="#DDEFEC" />
<rect x="9" y="15" width="1" height="1" fill="#3EE095" />
<rect x="10" y="15" width="1" height="1" fill="#30DF8C" />
<rect x="11" y="15" width="1" height="1" fill="#C1EBDD" />
<rect x="12" y="15" width="1" height="1" fill="#A2E8CC" />
<rect x="13" y="15" width="1" height="1" fill="#4DE19D" />
<rect x="14" y="15" width="1" height="1" fill="#20DE84" />
<rect x="15" y="15" width="1" height="1" fill="#1CDE82" />
<rect x="16" y="15" width="1" height="1" fill="#1CDE82" />
<rect x="17" y="15" width="1" height="1" fill="#20DE84" />
<rect x="18" y="15" width="1" height="1" fill="#4CE19C" />
<rect x="19" y="15" width="1" height="1" fill="#A1E9CB" />
<rect x="20" y="15" width="1" height="1" fill="#C1EBDC" />
<rect x="21" y="15" width="1" height="1" fill="#30DF8C" />
<rect x="22" y="15" width="1" height="1" fill="#3EE095" />
<rect x="23" y="15" width="1" height="1" fill="#DDEFEC" />
<rect x="24" y="15" width="1" height="1" fill="#F0F1F6" />
<rect x="25" y="15" width="1" height="1" fill="#F0F2F6" />
<rect x="26" y="15" width="1" height="1" fill="#D2D3D6" opacity="0.976471" />
<rect x="27" y="15" width="1" height="1" fill="#9F9FA1" opacity="0.286275" />
<rect x="4" y="16" width="1" height="1" fill="#9F9FA1" opacity="0.286275" />
<rect x="5" y="16" width="1" height="1" fill="#D2D3D6" opacity="0.976471" />
<rect x="6" y="16" width="1" height="1" fill="#F0F2F6" />
<rect x="7" y="16" width="1" height="1" fill="#F0F1F6" />
<rect x="8" y="16" width="1" height="1" fill="#DDEFEC" />
<rect x="9" y="16" width="1" height="1" fill="#3EE095" />
<rect x="10" y="16" width="1" height="1" fill="#2FDF8C" />
<rect x="11" y="16" width="1" height="1" fill="#D1EDE5" />
<rect x="12" y="16" width="1" height="1" fill="#F4F1F8" />
<rect x="13" y="16" width="1" height="1" fill="#E1EFEE" />
<rect x="14" y="16" width="1" height="1" fill="#97E7C6" />
<rect x="15" y="16" width="1" height="1" fill="#28DE88" />
<rect x="16" y="16" width="1" height="1" fill="#28DE88" />
<rect x="17" y="16" width="1" height="1" fill="#96E8C5" />
<rect x="18" y="16" width="1" height="1" fill="#E0EFED" />
<rect x="19" y="16" width="1" height="1" fill="#F4F1F8" />
<rect x="20" y="16" width="1" height="1" fill="#D1EDE5" />
<rect x="21" y="16" width="1" height="1" fill="#2FDF8C" />
<rect x="22" y="16" width="1" height="1" fill="#3EE095" />
<rect x="23" y="16" width="1" height="1" fill="#DDEFEC" />
<rect x="24" y="16" width="1" height="1" fill="#F0F1F6" />
<rect x="25" y="16" width="1" height="1" fill="#F0F2F6" />
<rect x="26" y="16" width="1" height="1" fill="#D2D3D6" opacity="0.976471" />
<rect x="27" y="16" width="1" height="1" fill="#9F9FA1" opacity="0.286275" />
<rect x="4" y="17" width="1" height="1" fill="#9F9FA1" opacity="0.286275" />
<rect x="5" y="17" width="1" height="1" fill="#D2D3D6" opacity="0.976471" />
<rect x="6" y="17" width="1" height="1" fill="#F0F2F6" />
<rect x="7" y="17" width="1" height="1" fill="#F0F1F6" />
<rect x="8" y="17" width="1" height="1" fill="#DDEFEC" />
<rect x="9" y="17" width="1" height="1" fill="#3EE095" />
<rect x="10" y="17" width="1" height="1" fill="#2FDF8C" />
<rect x="11" y="17" width="1" height="1" fill="#D3EDE6" />
<rect x="12" y="17" width="1" height="1" fill="#F2F1F7" />
<rect x="13" y="17" width="1" height="1" fill="#F2F1F6" />
<rect x="14" y="17" width="1" height="1" fill="#DAEEEA" />
<rect x="15" y="17" width="1" height="1" fill="#37DF90" />
<rect x="16" y="17" width="1" height="1" fill="#37DF90" />
<rect x="17" y="17" width="1" height="1" fill="#DAEEEA" />
<rect x="18" y="17" width="1" height="1" fill="#F2F1F6" />
<rect x="19" y="17" width="1" height="1" fill="#F2F1F7" />
<rect x="20" y="17" width="1" height="1" fill="#D3EDE6" />
<rect x="21" y="17" width="1" height="1" fill="#2FDF8C" />
<rect x="22" y="17" width="1" height="1" fill="#3EE095" />
<rect x="23" y="17" width="1" height="1" fill="#DDEFEC" />
<rect x="24" y="17" width="1" height="1" fill="#F0F1F6" />
<rect x="25" y="17" width="1" height="1" fill="#F0F2F6" />
<rect x="26" y="17" width="1" height="1" fill="#D2D3D6" opacity="0.976471" />
<rect x="27" y="17" width="1" height="1" fill="#9F9FA1" opacity="0.286275" />
<rect x="4" y="18" width="1" height="1" fill="#9F9FA1" opacity="0.286275" />
<rect x="5" y="18" width="1" height="1" fill="#D2D3D6" opacity="0.976471" />
<rect x="6" y="18" width="1" height="1" fill="#F0F2F6" />
<rect x="7" y="18" width="1" height="1" fill="#F0F1F6" />
<rect x="8" y="18" width="1" height="1" fill="#DDEFEC" />
<rect x="9" y="18" width="1" height="1" fill="#3DE094" />
<rect x="10" y="18" width="1" height="1" fill="#22DE85" />
<rect x="11" y="18" width="1" height="1" fill="#8BE6BF" />
<rect x="12" y="18" width="1" height="1" fill="#DCEEEB" />
<rect x="13" y="18" width="1" height="1" fill="#F3F1F7" />
<rect x="14" y="18" width="1" height="1" fill="#D9EEE9" />
<rect x="15" y="18" width="1" height="1" fill="#36DF90" />
<rect x="16" y="18" width="1" height="1" fill="#36DF90" />
<rect x="17" y="18" width="1" height="1" fill="#D9EEE9" />
<rect x="18" y="18" width="1" height="1" fill="#F3F1F7" />
<rect x="19" y="18" width="1" height="1" fill="#DCEEEB" />
<rect x="20" y="18" width="1" height="1" fill="#8BE6BF" />
<rect x="21" y="18" width="1" height="1" fill="#22DE85" />
<rect x="22" y="18" width="1" height="1" fill="#3DE094" />
<rect x="23" y="18" width="1" height="1" fill="#DDEFEC" />
<rect x="24" y="18" width="1" height="1" fill="#F0F1F6" />
<rect x="25" y="18" width="1" height="1" fill="#F0F2F6" />
<rect x="26" y="18" width="1" height="1" fill="#D2D3D6" opacity="0.976471" />
<rect x="27" y="18" width="1" height="1" fill="#9F9FA1" opacity="0.286275" />
<rect x="4" y="19" width="1" height="1" fill="#9F9FA1" opacity="0.286275" />
<rect x="5" y="19" width="1" height="1" fill="#D2D3D6" opacity="0.976471" />
<rect x="6" y="19" width="1" height="1" fill="#F0F2F6" />
<rect x="7" y="19" width="1" height="1" fill="#EFF1F5" />
<rect x="8" y="19" width="1" height="1" fill="#E8F0F2" />
<rect x="9" y="19" width="1" height="1" fill="#6FE4B0" />
<rect x="10" y="19" width="1" height="1" fill="#21DE84" />
<rect x="11" y="19" width="1" height="1" fill="#1BDE81" />
<rect x="12" y="19" width="1" height="1" fill="#44E098" />
<rect x="13" y="19" width="1" height="1" fill="#97E7C6" />
<rect x="14" y="19" width="1" height="1" fill="#C3EBDE" />
<rect x="15" y="19" width="1" height="1" fill="#36DF90" />
<rect x="16" y="19" width="1" height="1" fill="#36DF90" />
<rect x="17" y="19" width="1" height="1" fill="#C3EBDE" />
<rect x="18" y="19" width="1" height="1" fill="#97E7C6" />
<rect x="19" y="19" width="1" height="1" fill="#44E098" />
<rect x="20" y="19" width="1" height="1" fill="#1BDE81" />
<rect x="21" y="19" width="1" height="1" fill="#21DE84" />
<rect x="22" y="19" width="1" height="1" fill="#6FE4B0" />
<rect x="23" y="19" width="1" height="1" fill="#E8F0F2" />
<rect x="24" y="19" width="1" height="1" fill="#EFF1F5" />
<rect x="25" y="19" width="1" height="1" fill="#F0F2F6" />
<rect x="26" y="19" width="1" height="1" fill="#D2D3D6" opacity="0.976471" />
<rect x="27" y="19" width="1" height="1" fill="#9F9FA1" opacity="0.286275" />
<rect x="4" y="20" width="1" height="1" fill="#9F9FA1" opacity="0.286275" />
<rect x="5" y="20" width="1" height="1" fill="#D2D3D6" opacity="0.976471" />
<rect x="6" y="20" width="1" height="1" fill="#F0F2F6" />
<rect x="7" y="20" width="1" height="1" fill="#EFF1F5" />
<rect x="8" y="20" width="1" height="1" fill="#F0F1F5" />
<rect x="9" y="20" width="1" height="1" fill="#E5F0F0" />
<rect x="10" y="20" width="1" height="1" fill="#A9EACF" />
<rect x="11" y="20" width="1" height="1" fill="#55E2A1" />
<rect x="12" y="20" width="1" height="1" fill="#20DE84" />
<rect x="13" y="20" width="1" height="1" fill="#1CDE81" />
<rect x="14" y="20" width="1" height="1" fill="#3BDF93" />
<rect x="15" y="20" width="1" height="1" fill="#25DE87" />
<rect x="16" y="20" width="1" height="1" fill="#25DE87" />
<rect x="17" y="20" width="1" height="1" fill="#3BDF93" />
<rect x="18" y="20" width="1" height="1" fill="#1CDE81" />
<rect x="19" y="20" width="1" height="1" fill="#20DE84" />
<rect x="20" y="20" width="1" height="1" fill="#55E2A1" />
<rect x="21" y="20" width="1" height="1" fill="#A9EACF" />
<rect x="22" y="20" width="1" height="1" fill="#E5F0F0" />
<rect x="23" y="20" width="1" height="1" fill="#F0F1F5" />
<rect x="24" y="20" width="1" height="1" fill="#EFF1F5" />
<rect x="25" y="20" width="1" height="1" fill="#F0F2F6" />
<rect x="26" y="20" width="1" height="1" fill="#D2D3D6" opacity="0.976471" />
<rect x="27" y="20" width="1" height="1" fill="#9F9FA1" opacity="0.286275" />
<rect x="4" y="21" width="1" height="1" fill="#9F9FA1" opacity="0.286275" />
<rect x="5" y="21" width="1" height="1" fill="#D2D3D6" opacity="0.976471" />
<rect x="6" y="21" width="1" height="1" fill="#F0F2F6" />
<rect x="7" y="21" width="1" height="1" fill="#EFF1F5" />
<rect x="8" y="21" width="1" height="1" fill="#EFF1F5" />
<rect x="9" y="21" width="1" height="1" fill="#F0F1F5" />
<rect x="10" y="21" width="1" height="1" fill="#F2F1F7" />
<rect x="11" y="21" width="1" height="1" fill="#E4F0EF" />
<rect x="12" y="21" width="1" height="1" fill="#A9EACF" />
<rect x="13" y="21" width="1" height="1" fill="#55E2A1" />
<rect x="14" y="21" width="1" height="1" fill="#21DE84" />
<rect x="15" y="21" width="1" height="1" fill="#19DE80" />
<rect x="16" y="21" width="1" height="1" fill="#19DE80" />
<rect x="17" y="21" width="1" height="1" fill="#21DE84" />
<rect x="18" y="21" width="1" height="1" fill="#55E2A1" />
<rect x="19" y="21" width="1" height="1" fill="#A9EACF" />
<rect x="20" y="21" width="1" height="1" fill="#E4F0EF" />
<rect x="21" y="21" width="1" height="1" fill="#F2F1F7" />
<rect x="22" y="21" width="1" height="1" fill="#F0F1F5" />
<rect x="23" y="21" width="1" height="1" fill="#EFF1F5" />
<rect x="24" y="21" width="1" height="1" fill="#EFF1F5" />
<rect x="25" y="21" width="1" height="1" fill="#F0F2F6" />
<rect x="26" y="21" width="1" height="1" fill="#D2D3D6" opacity="0.976471" />
<rect x="27" y="21" width="1" height="1" fill="#9F9FA1" opacity="0.286275" />
<rect x="4" y="22" width="1" height="1" fill="#9F9FA1" opacity="0.286275" />
<rect x="5" y="22" width="1" height="1" fill="#D2D3D6" opacity="0.976471" />
<rect x="6" y="22" width="1" height="1" fill="#F0F2F6" />
<rect x="7" y="22" width="1" height="1" fill="#EFF1F5" />
<rect x="8" y="22" width="1" height="1" fill="#EFF1F5" />
<rect x="9" y="22" width="1" height="1" fill="#EFF1F5" />
<rect x="10" y="22" width="1" height="1" fill="#EFF1F5" />
<rect x="11" y="22" width="1" height="1" fill="#F0F1F5" />
<rect x="12" y="22" width="1" height="1" fill="#F2F1F7" />
<rect x="13" y="22" width="1" height="1" fill="#E4F0EF" />
<rect x="14" y="22" width="1" height="1" fill="#A9EACF" />
<rect x="15" y="22" width="1" height="1" fill="#59E2A3" />
<rect x="16" y="22" width="1" height="1" fill="#58E2A3" />
<rect x="17" y="22" width="1" height="1" fill="#A9EACF" />
<rect x="18" y="22" width="1" height="1" fill="#E4F0EF" />
<rect x="19" y="22" width="1" height="1" fill="#F2F1F7" />
<rect x="20" y="22" width="1" height="1" fill="#F0F1F5" />
<rect x="21" y="22" width="1" height="1" fill="#EFF1F5" />
<rect x="22" y="22" width="1" height="1" fill="#EFF1F5" />
<rect x="23" y="22" width="1" height="1" fill="#EFF1F5" />
<rect x="24" y="22" width="1" height="1" fill="#EFF1F5" />
<rect x="25" y="22" width="1" height="1" fill="#F0F2F6" />
<rect x="26" y="22" width="1" height="1" fill="#D2D3D6" opacity="0.976471" />
<rect x="27" y="22" width="1" height="1" fill="#9F9FA1" opacity="0.286275" />
<rect x="4" y="23" width="1" height="1" fill="#9F9FA1" opacity="0.286275" />
<rect x="5" y="23" width="1" height="1" fill="#D2D3D6" opacity="0.976471" />
<rect x="6" y="23" width="1" height="1" fill="#F2F4F8" />
<rect x="7" y="23" width="1" height="1" fill="#F1F2F7" />
<rect x="8" y="23" width="1" height="1" fill="#F0F2F6" />
<rect x="9" y="23" width="1" height="1" fill="#F2F3F7" />
<rect x="10" y="23" width="1" height="1" fill="#F0F2F6" />
<rect x="11" y="23" width="1" height="1" fill="#F1F2F6" />
<rect x="12" y="23" width="1" height="1" fill="#F1F3F7" />
<rect x="13" y="23" width="1" height="1" fill="#F0F1F6" />
<rect x="14" y="23" width="1" height="1" fill="#F4F3F8" />
<rect x="15" y="23" width="1" height="1" fill="#E9F1F2" />
<rect x="16" y="23" width="1" height="1" fill="#E8F1F2" />
<rect x="17" y="23" width="1" height="1" fill="#F3F2F7" />
<rect x="18" y="23" width="1" height="1" fill="#F1F2F7" />
<rect x="19" y="23" width="1" height="1" fill="#F0F2F6" />
<rect x="20" y="23" width="1" height="1" fill="#F1F3F7" />
<rect x="21" y="23" width="1" height="1" fill="#F0F1F6" />
<rect x="22" y="23" width="1" height="1" fill="#F0F2F6" />
<rect x="23" y="23" width="1" height="1" fill="#F1F3F7" />
<rect x="24" y="23" width="1" height="1" fill="#F0F2F6" />
<rect x="25" y="23" width="1" height="1" fill="#F3F4F9" />
<rect x="26" y="23" width="1" height="1" fill="#D3D4D7" opacity="0.976471" />
<rect x="27" y="23" width="1" height="1" fill="#9F9FA1" opacity="0.286275" />
<rect x="4" y="24" width="1" height="1" fill="#A0A0A2" opacity="0.286275" />
<rect x="5" y="24" width="1" height="1" fill="#CED0D2" opacity="0.976471" />
<rect x="6" y="24" width="1" height="1" fill="#CED7D7" />
<rect x="7" y="24" width="1" height="1" fill="#D4DCDD" />
<rect x="8" y="24" width="1" height="1" fill="#E1E6E9" />
<rect x="9" y="24" width="1" height="1" fill="#C8D3D2" />
<rect x="10" y="24" width="1" height="1" fill="#DBE1E3" />
<rect x="11" y="24" width="1" height="1" fill="#D6DDDE" />
<rect x="12" y="24" width="1" height="1" fill="#CFD8D9" />
<rect x="13" y="24" width="1" height="1" fill="#E9ECF0" />
<rect x="14" y="24" width="1" height="1" fill="#CCD6D6" />
<rect x="15" y="24" width="1" height="1" fill="#D8DFE0" />
<rect x="16" y="24" width="1" height="1" fill="#E2E6E9" />
<rect x="17" y="24" width="1" height="1" fill="#E1E6E8" />
<rect x="18" y="24" width="1" height="1" fill="#DCE2E4" />
<rect x="19" y="24" width="1" height="1" fill="#D8DFE0" />
<rect x="20" y="24" width="1" height="1" fill="#C9D4D3" />
<rect x="21" y="24" width="1" height="1" fill="#E6EAED" />
<rect x="22" y="24" width="1" height="1" fill="#DFE4E7" />
<rect x="23" y="24" width="1" height="1" fill="#C9D3D3" />
<rect x="24" y="24" width="1" height="1" fill="#DBE1E3" />
<rect x="25" y="24" width="1" height="1" fill="#C9D4D3" />
<rect x="26" y="24" width="1" height="1" fill="#BDC3C4" opacity="0.976471" />
<rect x="27" y="24" width="1" height="1" fill="#A1A0A2" opacity="0.286275" />
<rect x="4" y="25" width="1" height="1" fill="#A4A3A5" opacity="0.286275" />
<rect x="5" y="25" width="1" height="1" fill="#BAC1C1" opacity="0.976471" />
<rect x="6" y="25" width="1" height="1" fill="#5C7F71" />
<rect x="7" y="25" width="1" height="1" fill="#68887C" />
<rect x="8" y="25" width="1" height="1" fill="#9BAFAA" />
<rect x="9" y="25" width="1" height="1" fill="#567A6C" />
<rect x="10" y="25" width="1" height="1" fill="#AABAB8" />
<rect x="11" y="25" width="1" height="1" fill="#6C8B80" />
<rect x="12" y="25" width="1" height="1" fill="#93A9A3" />
<rect x="13" y="25" width="1" height="1" fill="#A4B6B2" />
<rect x="14" y="25" width="1" height="1" fill="#7E9990" />
<rect x="15" y="25" width="1" height="1" fill="#7A968D" />
<rect x="16" y="25" width="1" height="1" fill="#87A098" />
<rect x="17" y="25" width="1" height="1" fill="#A2B5B0" />
<rect x="18" y="25" width="1" height="1" fill="#839D94" />
<rect x="19" y="25" width="1" height="1" fill="#7C988E" />
<rect x="20" y="25" width="1" height="1" fill="#54786A" />
<rect x="21" y="25" width="1" height="1" fill="#99AEA8" />
<rect x="22" y="25" width="1" height="1" fill="#7C988E" />
<rect x="23" y="25" width="1" height="1" fill="#A2B5B1" />
<rect x="24" y="25" width="1" height="1" fill="#9BAFAA" />
<rect x="25" y="25" width="1" height="1" fill="#577B6D" />
<rect x="26" y="25" width="1" height="1" fill="#98A6A3" opacity="0.976471" />
<rect x="27" y="25" width="1" height="1" fill="#A5A4A6" opacity="0.286275" />
<rect x="4" y="26" width="1" height="1" fill="#A4A3A5" opacity="0.286275" />
<rect x="5" y="26" width="1" height="1" fill="#B7BEBF" opacity="0.976471" />
<rect x="6" y="26" width="1" height="1" fill="#567B6D" />
<rect x="7" y="26" width="1" height="1" fill="#65867A" />
<rect x="8" y="26" width="1" height="1" fill="#8FA69F" />
<rect x="9" y="26" width="1" height="1" fill="#577B6D" />
<rect x="10" y="26" width="1" height="1" fill="#B8C6C4" />
<rect x="11" y="26" width="1" height="1" fill="#94AAA4" />
<rect x="12" y="26" width="1" height="1" fill="#648579" />
<rect x="13" y="26" width="1" height="1" fill="#79958B" />
<rect x="14" y="26" width="1" height="1" fill="#98ADA7" />
<rect x="15" y="26" width="1" height="1" fill="#79958B" />
<rect x="16" y="26" width="1" height="1" fill="#769389" />
<rect x="17" y="26" width="1" height="1" fill="#849E95" />
<rect x="18" y="26" width="1" height="1" fill="#739186" />
<rect x="19" y="26" width="1" height="1" fill="#769288" />
<rect x="20" y="26" width="1" height="1" fill="#55796B" />
<rect x="21" y="26" width="1" height="1" fill="#88A099" />
<rect x="22" y="26" width="1" height="1" fill="#6D8C80" />
<rect x="23" y="26" width="1" height="1" fill="#CFD8D8" />
<rect x="24" y="26" width="1" height="1" fill="#9FB3AE" />
<rect x="25" y="26" width="1" height="1" fill="#577B6D" />
<rect x="26" y="26" width="1" height="1" fill="#A1ACAB" opacity="0.976471" />
<rect x="27" y="26" width="1" height="1" fill="#A4A3A6" opacity="0.286275" />
<rect x="4" y="27" width="1" height="1" fill="#A1A1A3" opacity="0.286275" />
<rect x="5" y="27" width="1" height="1" fill="#C5C9CB" opacity="0.976471" />
<rect x="6" y="27" width="1" height="1" fill="#B8C7C4" />
<rect x="7" y="27" width="1" height="1" fill="#BCCAC8" />
<rect x="8" y="27" width="1" height="1" fill="#B2C2BF" />
<rect x="9" y="27" width="1" height="1" fill="#95ABA5" />
<rect x="10" y="27" width="1" height="1" fill="#BECBC9" />
<rect x="11" y="27" width="1" height="1" fill="#ACBDB9" />
<rect x="12" y="27" width="1" height="1" fill="#9FB2AD" />
<rect x="13" y="27" width="1" height="1" fill="#CFD8D8" />
<rect x="14" y="27" width="1" height="1" fill="#99AEA8" />
<rect x="15" y="27" width="1" height="1" fill="#AABBB8" />
<rect x="16" y="27" width="1" height="1" fill="#D3DBDC" />
<rect x="17" y="27" width="1" height="1" fill="#94AAA4" />
<rect x="18" y="27" width="1" height="1" fill="#B4C3C0" />
<rect x="19" y="27" width="1" height="1" fill="#BECBC9" />
<rect x="20" y="27" width="1" height="1" fill="#C4CFCE" />
<rect x="21" y="27" width="1" height="1" fill="#B7C6C3" />
<rect x="22" y="27" width="1" height="1" fill="#B5C4C1" />
<rect x="23" y="27" width="1" height="1" fill="#9DB1AC" />
<rect x="24" y="27" width="1" height="1" fill="#BBC8C7" />
<rect x="25" y="27" width="1" height="1" fill="#96ACA5" />
<rect x="26" y="27" width="1" height="1" fill="#A5B0AF" opacity="0.976471" />
<rect x="27" y="27" width="1" height="1" fill="#A2A1A4" opacity="0.286275" />
<rect x="4" y="28" width="1" height="1" fill="#9F9FA1" opacity="0.286275" />
<rect x="5" y="28" width="1" height="1" fill="#D2D3D7" opacity="0.976471" />
<rect x="6" y="28" width="1" height="1" fill="#F2F4F8" />
<rect x="7" y="28" width="1" height="1" fill="#F1F3F7" />
<rect x="8" y="28" width="1" height="1" fill="#F1F3F7" />
<rect x="9" y="28" width="1" height="1" fill="#F2F3F7" />
<rect x="10" y="28" width="1" height="1" fill="#F1F2F6" />
<rect x="11" y="28" width="1" height="1" fill="#F1F2F7" />
<rect x="12" y="28" width="1" height="1" fill="#F1F3F7" />
<rect x="13" y="28" width="1" height="1" fill="#F1F3F7" />
<rect x="14" y="28" width="1" height="1" fill="#F1F3F7" />
<rect x="15" y="28" width="1" height="1" fill="#F1F3F7" />
<rect x="16" y="28" width="1" height="1" fill="#F1F2F7" />
<rect x="17" y="28" width="1" height="1" fill="#F1F3F7" />
<rect x="18" y="28" width="1" height="1" fill="#F1F3F7" />
<rect x="19" y="28" width="1" height="1" fill="#F1F3F7" />
<rect x="20" y="28" width="1" height="1" fill="#F1F3F7" />
<rect x="21" y="28" width="1" height="1" fill="#F1F3F7" />
<rect x="22" y="28" width="1" height="1" fill="#F1F3F7" />
<rect x="23" y="28" width="1" height="1" fill="#F1F2F7" />
<rect x="24" y="28" width="1" height="1" fill="#F1F3F7" />
<rect x="25" y="28" width="1" height="1" fill="#F3F5F9" />
<rect x="26" y="28" width="1" height="1" fill="#D3D4D7" opacity="0.976471" />
<rect x="27" y="28" width="1" height="1" fill="#9F9FA1" opacity="0.286275" />
<rect x="4" y="29" width="1" height="1" fill="#9F9FA1" opacity="0.290196" />
<rect x="5" y="29" width="1" height="1" fill="#CED0D3" opacity="0.992157" />
<rect x="6" y="29" width="1" height="1" fill="#EBEDF1" />
<rect x="7" y="29" width="1" height="1" fill="#EAECF0" />
<rect x="8" y="29" width="1" height="1" fill="#EAECF0" />
<rect x="9" y="29" width="1" height="1" fill="#EAECF0" />
<rect x="10" y="29" width="1" height="1" fill="#EAECF0" />
<rect x="11" y="29" width="1" height="1" fill="#EAECF0" />
<rect x="12" y="29" width="1" height="1" fill="#EAECF0" />
<rect x="13" y="29" width="1" height="1" fill="#EAECF0" />
<rect x="14" y="29" width="1" height="1" fill="#EAECF0" />
<rect x="15" y="29" width="1" height="1" fill="#EAECF0" />
<rect x="16" y="29" width="1" height="1" fill="#EAECF0" />
<rect x="17" y="29" width="1" height="1" fill="#EAECF0" />
<rect x="18" y="29" width="1" height="1" fill="#EAECF0" />
<rect x="19" y="29" width="1" height="1" fill="#EAECF0" />
<rect x="20" y="29" width="1" height="1" fill="#EAECF0" />
<rect x="21" y="29" width="1" height="1" fill="#EAECF0" />
<rect x="22" y="29" width="1" height="1" fill="#EAECF0" />
<rect x="23" y="29" width="1" height="1" fill="#EAECF0" />
<rect x="24" y="29" width="1" height="1" fill="#EAECF0" />
<rect x="25" y="29" width="1" height="1" fill="#EBEDF1" />
<rect x="26" y="29" width="1" height="1" fill="#CED0D3" opacity="0.992157" />
<rect x="27" y="29" width="1" height="1" fill="#9F9FA1" opacity="0.290196" />
<rect x="4" y="30" width="1" height="1" fill="#9F9FA1" opacity="0.196078" />
<rect x="5" y="30" width="1" height="1" fill="#AEAFB1" opacity="0.701961" />
<rect x="6" y="30" width="1" height="1" fill="#B8B8BB" opacity="0.725490" />
<rect x="7" y="30" width="1" height="1" fill="#B7B8BA" opacity="0.725490" />
<rect x="8" y="30" width="1" height="1" fill="#B7B8BA" opacity="0.725490" />
<rect x="9" y="30" width="1" height="1" fill="#B7B8BA" opacity="0.725490" />
<rect x="10" y="30" width="1" height="1" fill="#B7B8BA" opacity="0.725490" />
<rect x="11" y="30" width="1" height="1" fill="#B7B8BA" opacity="0.725490" />
<rect x="12" y="30" width="1" height="1" fill="#B7B8BA" opacity="0.725490" />
<rect x="13" y="30" width="1" height="1" fill="#B7B8BA" opacity="0.725490" />
<rect x="14" y="30" width="1" height="1" fill="#B7B8BA" opacity="0.725490" />
<rect x="15" y="30" width="1" height="1" fill="#B7B8BA" opacity="0.725490" />
<rect x="16" y="30" width="1" height="1" fill="#B7B8BA" opacity="0.725490" />
<rect x="17" y="30" width="1" height="1" fill="#B7B8BA" opacity="0.725490" />
<rect x="18" y="30" width="1" height="1" fill="#B7B8BA" opacity="0.725490" />
<rect x="19" y="30" width="1" height="1" fill="#B7B8BA" opacity="0.725490" />
<rect x="20" y="30" width="1" height="1" fill="#B7B8BA" opacity="0.725490" />
<rect x="21" y="30" width="1" height="1" fill="#B7B8BA" opacity="0.725490" />
<rect x="22" y="30" width="1" height="1" fill="#B7B8BA" opacity="0.725490" />
<rect x="23" y="30" width="1" height="1" fill="#B7B8BA" opacity="0.725490" />
<rect x="24" y="30" width="1" height="1" fill="#B7B8BA" opacity="0.725490" />
<rect x="25" y="30" width="1" height="1" fill="#B8B8BB" opacity="0.725490" />
<rect x="26" y="30" width="1" height="1" fill="#AEAFB1" opacity="0.701961" />
<rect x="27" y="30" width="1" height="1" fill="#9F9FA1" opacity="0.196078" />
<rect x="4" y="31" width="1" height="1" fill="#9F9FA1" opacity="0.003922" />
<rect x="5" y="31" width="1" height="1" fill="#868586" opacity="0.031373" />
<rect x="6" y="31" width="1" height="1" fill="#797879" opacity="0.031373" />
<rect x="7" y="31" width="1" height="1" fill="#797879" opacity="0.031373" />
<rect x="8" y="31" width="1" height="1" fill="#797879" opacity="0.031373" />
<rect x="9" y="31" width="1" height="1" fill="#797879" opacity="0.031373" />
<rect x="10" y="31" width="1" height="1" fill="#797879" opacity="0.031373" />
<rect x="11" y="31" width="1" height="1" fill="#797879" opacity="0.031373" />
<rect x="12" y="31" width="1" height="1" fill="#797879" opacity="0.031373" />
<rect x="13" y="31" width="1" height="1" fill="#797879" opacity="0.031373" />
<rect x="14" y="31" width="1" height="1" fill="#797879" opacity="0.031373" />
<rect x="15" y="31" width="1" height="1" fill="#797879" opacity="0.031373" />
<rect x="16" y="31" width="1" height="1" fill="#797879" opacity="0.031373" />
<rect x="17" y="31" width="1" height="1" fill="#797879" opacity="0.031373" />
<rect x="18" y="31" width="1" height="1" fill="#797879" opacity="0.031373" />
<rect x="19" y="31" width="1" height="1" fill="#797879" opacity="0.031373" />
<rect x="20" y="31" width="1" height="1" fill="#797879" opacity="0.031373" />
<rect x="21" y="31" width="1" height="1" fill="#797879" opacity="0.031373" />
<rect x="22" y="31" width="1" height="1" fill="#797879" opacity="0.031373" />
<rect x="23" y="31" width="1" height="1" fill="#797879" opacity="0.031373" />
<rect x="24" y="31" width="1" height="1" fill="#797879" opacity="0.031373" />
<rect x="25" y="31" width="1" height="1" fill="#797879" opacity="0.031373" />
<rect x="26" y="31" width="1" height="1" fill="#868586" opacity="0.031373" />
<rect x="27" y="31" width="1" height="1" fill="#9F9FA1" opacity="0.003922" />
</svg>