<?xml version="1.0" encoding="UTF-8" ?>
<svg version="1.1" width="16" height="16" xmlns="http://www.w3.org/2000/svg" shape-rendering="crispEdges">
<rect x="1" y="0" width="1" height="1" fill="#FFFFFF" opacity="0.000000" />
<rect x="2" y="0" width="1" height="1" fill="#B2B2B5" opacity="0.270588" />
<rect x="3" y="0" width="1" height="1" fill="#C0C0C3" opacity="0.462745" />
<rect x="4" y="0" width="1" height="1" fill="#C0C1C4" opacity="0.454902" />
<rect x="5" y="0" width="1" height="1" fill="#C0C1C4" opacity="0.454902" />
<rect x="6" y="0" width="1" height="1" fill="#C0C1C4" opacity="0.454902" />
<rect x="7" y="0" width="1" height="1" fill="#BFC0C3" opacity="0.435294" />
<rect x="8" y="0" width="1" height="1" fill="#B2B3B5" opacity="0.243137" />
<rect x="9" y="0" width="1" height="1" fill="#7A797A" opacity="0.015686" />
<rect x="10" y="0" width="1" height="1" fill="#A1A1A3" opacity="0.000000" />
<rect x="11" y="0" width="1" height="1" fill="#A5A5A7" opacity="0.000000" />
<rect x="13" y="0" width="1" height="1" fill="#000000" opacity="0.000000" />
<rect x="14" y="0" width="1" height="1" fill="#000000" opacity="0.000000" />
<rect x="15" y="0" width="1" height="1" fill="#000000" opacity="0.000000" />
<rect x="1" y="1" width="1" height="1" fill="#FFFFFF" opacity="0.000000" />
<rect x="2" y="1" width="1" height="1" fill="#C8C9CC" opacity="0.603922" />
<rect x="3" y="1" width="1" height="1" fill="#E6E8EC" />
<rect x="4" y="1" width="1" height="1" fill="#E8EAEE" opacity="0.996078" />
<rect x="5" y="1" width="1" height="1" fill="#E8EAEE" opacity="0.996078" />
<rect x="6" y="1" width="1" height="1" fill="#E8EAEE" opacity="0.996078" />
<rect x="7" y="1" width="1" height="1" fill="#E8E9ED" opacity="0.996078" />
<rect x="8" y="1" width="1" height="1" fill="#DEDFE3" opacity="0.925490" />
<rect x="9" y="1" width="1" height="1" fill="#BABBBE" opacity="0.533333" />
<rect x="10" y="1" width="1" height="1" fill="#8D8C8E" opacity="0.058824" />
<rect x="11" y="1" width="1" height="1" fill="#ADADAF" opacity="0.000000" />
<rect x="12" y="1" width="1" height="1" fill="#B9BABC" opacity="0.000000" />
<rect x="14" y="1" width="1" height="1" fill="#000000" opacity="0.000000" />
<rect x="15" y="1" width="1" height="1" fill="#000000" opacity="0.000000" />
<rect x="1" y="2" width="1" height="1" fill="#FFFFFF" opacity="0.000000" />
<rect x="2" y="2" width="1" height="1" fill="#CCCDD0" opacity="0.607843" />
<rect x="3" y="2" width="1" height="1" fill="#EDEFF3" />
<rect x="4" y="2" width="1" height="1" fill="#EFF1F5" />
<rect x="5" y="2" width="1" height="1" fill="#EFF1F5" />
<rect x="6" y="2" width="1" height="1" fill="#EFF1F5" />
<rect x="7" y="2" width="1" height="1" fill="#EFF1F6" />
<rect x="8" y="2" width="1" height="1" fill="#F0F2F6" />
<rect x="9" y="2" width="1" height="1" fill="#D4D6D9" />
<rect x="10" y="2" width="1" height="1" fill="#C5C5C8" opacity="0.643137" />
<rect x="11" y="2" width="1" height="1" fill="#A9AAAC" opacity="0.094118" />
<rect x="12" y="2" width="1" height="1" fill="#ADAEB0" opacity="0.000000" />
<rect x="13" y="2" width="1" height="1" fill="#AFAFB2" opacity="0.000000" />
<rect x="15" y="2" width="1" height="1" fill="#000000" opacity="0.000000" />
<rect x="1" y="3" width="1" height="1" fill="#FFFFFF" opacity="0.000000" />
<rect x="2" y="3" width="1" height="1" fill="#CCCDD0" opacity="0.607843" />
<rect x="3" y="3" width="1" height="1" fill="#EDEFF3" />
<rect x="4" y="3" width="1" height="1" fill="#EFF1F5" />
<rect x="5" y="3" width="1" height="1" fill="#EFF1F5" />
<rect x="6" y="3" width="1" height="1" fill="#EFF1F5" />
<rect x="7" y="3" width="1" height="1" fill="#EFF1F5" />
<rect x="8" y="3" width="1" height="1" fill="#EFF1F5" />
<rect x="9" y="3" width="1" height="1" fill="#D9DADE" />
<rect x="10" y="3" width="1" height="1" fill="#DBDBDF" />
<rect x="11" y="3" width="1" height="1" fill="#C3C3C6" opacity="0.713725" />
<rect x="12" y="3" width="1" height="1" fill="#9B9B9D" opacity="0.133333" />
<rect x="13" y="3" width="1" height="1" fill="#ACACAF" opacity="0.000000" />
<rect x="14" y="3" width="1" height="1" fill="#B2B2B5" opacity="0.000000" />
<rect x="15" y="3" width="1" height="1" fill="#000000" opacity="0.000000" />
<rect x="1" y="4" width="1" height="1" fill="#FFFFFF" opacity="0.000000" />
<rect x="2" y="4" width="1" height="1" fill="#CCCDD0" opacity="0.607843" />
<rect x="3" y="4" width="1" height="1" fill="#EDEFF3" />
<rect x="4" y="4" width="1" height="1" fill="#F0F1F6" />
<rect x="5" y="4" width="1" height="1" fill="#F1F1F6" />
<rect x="6" y="4" width="1" height="1" fill="#F1F1F6" />
<rect x="7" y="4" width="1" height="1" fill="#F1F1F6" />
<rect x="8" y="4" width="1" height="1" fill="#EDF1F4" />
<rect x="9" y="4" width="1" height="1" fill="#E5E8EB" />
<rect x="10" y="4" width="1" height="1" fill="#CEE1DC" />
<rect x="11" y="4" width="1" height="1" fill="#D3DCDC" />
<rect x="12" y="4" width="1" height="1" fill="#C7C7CA" opacity="0.713725" />
<rect x="13" y="4" width="1" height="1" fill="#A3A3A5" opacity="0.074510" />
<rect x="14" y="4" width="1" height="1" fill="#A8A8AA" opacity="0.000000" />
<rect x="1" y="5" width="1" height="1" fill="#FFFFFF" opacity="0.000000" />
<rect x="2" y="5" width="1" height="1" fill="#CCCDD0" opacity="0.607843" />
<rect x="3" y="5" width="1" height="1" fill="#EEEFF3" />
<rect x="4" y="5" width="1" height="1" fill="#DDEFEB" />
<rect x="5" y="5" width="1" height="1" fill="#D3EEE6" />
<rect x="6" y="5" width="1" height="1" fill="#BFECDB" />
<rect x="7" y="5" width="1" height="1" fill="#C0ECDB" />
<rect x="8" y="5" width="1" height="1" fill="#A1E9CB" />
<rect x="9" y="5" width="1" height="1" fill="#B6EBD7" />
<rect x="10" y="5" width="1" height="1" fill="#90E8C2" />
<rect x="11" y="5" width="1" height="1" fill="#C4EEDF" />
<rect x="12" y="5" width="1" height="1" fill="#E8E8EC" opacity="0.992157" />
<rect x="13" y="5" width="1" height="1" fill="#BDBEC1" opacity="0.368627" />
<rect x="14" y="5" width="1" height="1" fill="#CECFD2" opacity="0.000000" />
<rect x="15" y="5" width="1" height="1" fill="#9F9F9F" opacity="0.000000" />
<rect x="1" y="6" width="1" height="1" fill="#FFFFFF" opacity="0.000000" />
<rect x="2" y="6" width="1" height="1" fill="#CCCDD0" opacity="0.607843" />
<rect x="3" y="6" width="1" height="1" fill="#EFEFF4" />
<rect x="4" y="6" width="1" height="1" fill="#BDECDA" />
<rect x="5" y="6" width="1" height="1" fill="#96E8C5" />
<rect x="6" y="6" width="1" height="1" fill="#BEECDB" />
<rect x="7" y="6" width="1" height="1" fill="#B5EBD6" />
<rect x="8" y="6" width="1" height="1" fill="#D0EEE4" />
<rect x="9" y="6" width="1" height="1" fill="#D3EEE6" />
<rect x="10" y="6" width="1" height="1" fill="#E2EFEE" />
<rect x="11" y="6" width="1" height="1" fill="#E8F0F1" />
<rect x="12" y="6" width="1" height="1" fill="#EDEEF2" />
<rect x="13" y="6" width="1" height="1" fill="#CACBCE" opacity="0.572549" />
<rect x="14" y="6" width="1" height="1" fill="#FFFFFF" opacity="0.000000" />
<rect x="1" y="7" width="1" height="1" fill="#FFFFFF" opacity="0.000000" />
<rect x="2" y="7" width="1" height="1" fill="#CCCDD0" opacity="0.607843" />
<rect x="3" y="7" width="1" height="1" fill="#EFEFF4" />
<rect x="4" y="7" width="1" height="1" fill="#C6EDDF" />
<rect x="5" y="7" width="1" height="1" fill="#61E3A7" />
<rect x="6" y="7" width="1" height="1" fill="#62E4A8" />
<rect x="7" y="7" width="1" height="1" fill="#62E4A8" />
<rect x="8" y="7" width="1" height="1" fill="#62E4A8" />
<rect x="9" y="7" width="1" height="1" fill="#62E4A8" />
<rect x="10" y="7" width="1" height="1" fill="#61E4A7" />
<rect x="11" y="7" width="1" height="1" fill="#B9ECD8" />
<rect x="12" y="7" width="1" height="1" fill="#F0EFF4" />
<rect x="13" y="7" width="1" height="1" fill="#CCCDD0" opacity="0.611765" />
<rect x="14" y="7" width="1" height="1" fill="#FFFFFF" opacity="0.000000" />
<rect x="1" y="8" width="1" height="1" fill="#FFFFFF" opacity="0.000000" />
<rect x="2" y="8" width="1" height="1" fill="#CCCDD0" opacity="0.607843" />
<rect x="3" y="8" width="1" height="1" fill="#F0EFF5" />
<rect x="4" y="8" width="1" height="1" fill="#B5EBD6" />
<rect x="5" y="8" width="1" height="1" fill="#20DE84" />
<rect x="6" y="8" width="1" height="1" fill="#19DE80" />
<rect x="7" y="8" width="1" height="1" fill="#19DE80" />
<rect x="8" y="8" width="1" height="1" fill="#19DE80" />
<rect x="9" y="8" width="1" height="1" fill="#19DE80" />
<rect x="10" y="8" width="1" height="1" fill="#19DE80" />
<rect x="11" y="8" width="1" height="1" fill="#9DE9C9" />
<rect x="12" y="8" width="1" height="1" fill="#F1EFF5" />
<rect x="13" y="8" width="1" height="1" fill="#CCCDD0" opacity="0.607843" />
<rect x="14" y="8" width="1" height="1" fill="#FFFFFF" opacity="0.000000" />
<rect x="1" y="9" width="1" height="1" fill="#FFFFFF" opacity="0.000000" />
<rect x="2" y="9" width="1" height="1" fill="#CCCDD0" opacity="0.607843" />
<rect x="3" y="9" width="1" height="1" fill="#F0EFF5" />
<rect x="4" y="9" width="1" height="1" fill="#B5EBD6" />
<rect x="5" y="9" width="1" height="1" fill="#21DE84" />
<rect x="6" y="9" width="1" height="1" fill="#1BDE81" />
<rect x="7" y="9" width="1" height="1" fill="#1CDE81" />
<rect x="8" y="9" width="1" height="1" fill="#1CDE81" />
<rect x="9" y="9" width="1" height="1" fill="#1CDE81" />
<rect x="10" y="9" width="1" height="1" fill="#1CDE81" />
<rect x="11" y="9" width="1" height="1" fill="#9EE9C9" />
<rect x="12" y="9" width="1" height="1" fill="#F1EFF5" />
<rect x="13" y="9" width="1" height="1" fill="#CCCDD0" opacity="0.607843" />
<rect x="14" y="9" width="1" height="1" fill="#FFFFFF" opacity="0.000000" />
<rect x="1" y="10" width="1" height="1" fill="#FFFFFF" opacity="0.000000" />
<rect x="2" y="10" width="1" height="1" fill="#CCCDD0" opacity="0.607843" />
<rect x="3" y="10" width="1" height="1" fill="#EFEFF4" />
<rect x="4" y="10" width="1" height="1" fill="#CAEDE1" />
<rect x="5" y="10" width="1" height="1" fill="#42E196" />
<rect x="6" y="10" width="1" height="1" fill="#2FDF8C" />
<rect x="7" y="10" width="1" height="1" fill="#30E08C" />
<rect x="8" y="10" width="1" height="1" fill="#30E08C" />
<rect x="9" y="10" width="1" height="1" fill="#2FE08C" />
<rect x="10" y="10" width="1" height="1" fill="#2FDF8C" />
<rect x="11" y="10" width="1" height="1" fill="#A6EACD" />
<rect x="12" y="10" width="1" height="1" fill="#F0EFF5" />
<rect x="13" y="10" width="1" height="1" fill="#CCCDD0" opacity="0.607843" />
<rect x="14" y="10" width="1" height="1" fill="#FFFFFF" opacity="0.000000" />
<rect x="1" y="11" width="1" height="1" fill="#FFFFFF" opacity="0.000000" />
<rect x="2" y="11" width="1" height="1" fill="#CCCDD0" opacity="0.607843" />
<rect x="3" y="11" width="1" height="1" fill="#EDEFF3" />
<rect x="4" y="11" width="1" height="1" fill="#EEF1F5" />
<rect x="5" y="11" width="1" height="1" fill="#D8EFE9" />
<rect x="6" y="11" width="1" height="1" fill="#CEEEE3" />
<rect x="7" y="11" width="1" height="1" fill="#CEEEE3" />
<rect x="8" y="11" width="1" height="1" fill="#CFEFE4" />
<rect x="9" y="11" width="1" height="1" fill="#D0EFE4" />
<rect x="10" y="11" width="1" height="1" fill="#CFEFE4" />
<rect x="11" y="11" width="1" height="1" fill="#E2F0EE" />
<rect x="12" y="11" width="1" height="1" fill="#EEEFF3" />
<rect x="13" y="11" width="1" height="1" fill="#CCCDD0" opacity="0.607843" />
<rect x="14" y="11" width="1" height="1" fill="#FFFFFF" opacity="0.000000" />
<rect x="1" y="12" width="1" height="1" fill="#FFFFFF" opacity="0.000000" />
<rect x="2" y="12" width="1" height="1" fill="#CCCDD0" opacity="0.607843" />
<rect x="3" y="12" width="1" height="1" fill="#EEEFF3" />
<rect x="4" y="12" width="1" height="1" fill="#E6EAED" />
<rect x="5" y="12" width="1" height="1" fill="#B3C1BF" />
<rect x="6" y="12" width="1" height="1" fill="#BAC6C5" />
<rect x="7" y="12" width="1" height="1" fill="#B3C1BF" />
<rect x="8" y="12" width="1" height="1" fill="#ACBCB9" />
<rect x="9" y="12" width="1" height="1" fill="#AABAB7" />
<rect x="10" y="12" width="1" height="1" fill="#A6B7B3" />
<rect x="11" y="12" width="1" height="1" fill="#DDE2E4" />
<rect x="12" y="12" width="1" height="1" fill="#EEF0F4" />
<rect x="13" y="12" width="1" height="1" fill="#CCCDD0" opacity="0.607843" />
<rect x="14" y="12" width="1" height="1" fill="#FFFFFF" opacity="0.000000" />
<rect x="1" y="13" width="1" height="1" fill="#FFFFFF" opacity="0.000000" />
<rect x="2" y="13" width="1" height="1" fill="#CCCDD0" opacity="0.607843" />
<rect x="3" y="13" width="1" height="1" fill="#EEF0F4" />
<rect x="4" y="13" width="1" height="1" fill="#E7EAEE" />
<rect x="5" y="13" width="1" height="1" fill="#9FB3AE" />
<rect x="6" y="13" width="1" height="1" fill="#A3B6B2" />
<rect x="7" y="13" width="1" height="1" fill="#A5B7B3" />
<rect x="8" y="13" width="1" height="1" fill="#9DB1AC" />
<rect x="9" y="13" width="1" height="1" fill="#91A8A1" />
<rect x="10" y="13" width="1" height="1" fill="#90A7A0" />
<rect x="11" y="13" width="1" height="1" fill="#D9E0E1" />
<rect x="12" y="13" width="1" height="1" fill="#EFF0F5" />
<rect x="13" y="13" width="1" height="1" fill="#CCCDD0" opacity="0.607843" />
<rect x="14" y="13" width="1" height="1" fill="#FFFFFF" opacity="0.000000" />
<rect x="1" y="14" width="1" height="1" fill="#FFFFFF" opacity="0.000000" />
<rect x="2" y="14" width="1" height="1" fill="#C8C9CC" opacity="0.603922" />
<rect x="3" y="14" width="1" height="1" fill="#E6E8EC" />
<rect x="4" y="14" width="1" height="1" fill="#E8EAEE" opacity="0.996078" />
<rect x="5" y="14" width="1" height="1" fill="#E5E7EB" opacity="0.996078" />
<rect x="6" y="14" width="1" height="1" fill="#E5E8EB" opacity="0.996078" />
<rect x="7" y="14" width="1" height="1" fill="#E4E6EA" opacity="0.996078" />
<rect x="8" y="14" width="1" height="1" fill="#E5E8EB" opacity="0.996078" />
<rect x="9" y="14" width="1" height="1" fill="#E7E9EC" opacity="0.996078" />
<rect x="10" y="14" width="1" height="1" fill="#E5E7EB" opacity="0.996078" />
<rect x="11" y="14" width="1" height="1" fill="#E7E9ED" opacity="0.996078" />
<rect x="12" y="14" width="1" height="1" fill="#E7E8EC" />
<rect x="13" y="14" width="1" height="1" fill="#C8C9CC" opacity="0.603922" />
<rect x="14" y="14" width="1" height="1" fill="#FFFFFF" opacity="0.000000" />
<rect x="1" y="15" width="1" height="1" fill="#FFFFFF" opacity="0.000000" />
<rect x="2" y="15" width="1" height="1" fill="#B2B3B5" opacity="0.274510" />
<rect x="3" y="15" width="1" height="1" fill="#C0C0C3" opacity="0.462745" />
<rect x="4" y="15" width="1" height="1" fill="#C1C1C4" opacity="0.454902" />
<rect x="5" y="15" width="1" height="1" fill="#C1C2C5" opacity="0.454902" />
<rect x="6" y="15" width="1" height="1" fill="#C1C2C4" opacity="0.454902" />
<rect x="7" y="15" width="1" height="1" fill="#C1C2C5" opacity="0.454902" />
<rect x="8" y="15" width="1" height="1" fill="#C1C2C5" opacity="0.454902" />
<rect x="9" y="15" width="1" height="1" fill="#C1C2C4" opacity="0.454902" />
<rect x="10" y="15" width="1" height="1" fill="#C1C2C5" opacity="0.454902" />
<rect x="11" y="15" width="1" height="1" fill="#C1C1C4" opacity="0.454902" />
<rect x="12" y="15" width="1" height="1" fill="#C0C0C3" opacity="0.462745" />
<rect x="13" y="15" width="1" height="1" fill="#B2B3B5" opacity="0.274510" />
<rect x="14" y="15" width="1" height="1" fill="#FFFFFF" opacity="0.000000" />
</svg>